<svg width="329.871" height="86.824" viewBox="0 0 329.871 86.824" fill="#fff" xmlns="http://www.w3.org/2000/svg"><path d="M174.276 80.246h-.578c-.424 1.803-1.456 3.297-3.095 4.486-1.639 1.188-3.943 1.782-6.912 1.782-2.198 0-4.203-.412-6.016-1.236-1.812-.824-3.354-2.079-4.626-3.767-1.273-1.686-2.266-3.842-2.979-6.468-.714-2.625-1.07-5.722-1.07-9.286 0-7.168 1.35-12.42 4.049-15.755 2.698-3.335 6.497-5.002 11.394-5.002 3.548 0 6.381.757 8.503 2.27 2.12 1.516 3.778 3.594 4.973 6.24l-3.816 2.3c-.772-2.108-1.949-3.757-3.529-4.946-1.581-1.187-3.624-1.782-6.13-1.782-3.356 0-5.939 1.102-7.75 3.306-1.814 2.205-2.72 5.167-2.72 8.884v8.97c0 3.719.906 6.68 2.72 8.884 1.811 2.204 4.394 3.306 7.75 3.306 1.31 0 2.553-.191 3.73-.575 1.176-.383 2.198-.95 3.065-1.696a7.998 7.998 0 0 0 2.054-2.76c.5-1.093.752-2.329.752-3.71v-4.37h-7.982V65.24h12.494v20.585h-4.281v-5.578Z" /><path d="M205.748 64.974c3.432 0 5.148-1.832 5.148-5.498v-3.895c0-3.666-1.716-5.499-5.148-5.499h-10.121v14.892h10.121Zm-10.121 21.16H191V46h14.864c6.671 0 10.007 3.814 10.007 11.442 0 6.44-2.392 10.158-7.173 11.154l8.156 17.538h-5.206l-7.577-17.25h-8.444v17.25Z" /><path d="M241.443 82.432c3.355 0 5.938-1.102 7.752-3.306 1.81-2.204 2.718-5.165 2.718-8.884v-8.97c0-3.717-.907-6.678-2.718-8.884-1.814-2.204-4.397-3.306-7.752-3.306-3.354 0-5.939 1.102-7.75 3.306-1.813 2.206-2.72 5.167-2.72 8.884v8.97c0 3.719.907 6.68 2.72 8.884 1.811 2.204 4.396 3.306 7.75 3.306Zm0 4.082c-4.897 0-8.696-1.667-11.393-5.003-2.7-3.335-4.05-8.585-4.05-15.754 0-7.168 1.35-12.42 4.05-15.755 2.697-3.335 6.496-5.002 11.393-5.002s8.695 1.667 11.394 5.002c2.7 3.336 4.05 8.587 4.05 15.755 0 7.169-1.35 12.42-4.05 15.754-2.7 3.336-6.497 5.003-11.394 5.003Z" /><path d="M271.627 46v25.99c0 1.802.145 3.373.434 4.715.289 1.342.76 2.462 1.417 3.363.655.901 1.532 1.572 2.631 2.013 1.1.441 2.439.66 4.02.66 3.161 0 5.369-.891 6.623-2.673 1.253-1.782 1.88-4.475 1.88-8.078V46h4.627v25.07c0 2.683-.231 5.011-.694 6.986-.463 1.974-1.205 3.613-2.227 4.915-1.023 1.305-2.372 2.271-4.049 2.905-1.677.632-3.73.948-6.16.948-2.428 0-4.483-.316-6.16-.948-1.677-.634-3.027-1.6-4.049-2.905-1.022-1.302-1.763-2.94-2.226-4.915-.463-1.975-.694-4.303-.694-6.987V46h4.627Z" /><path d="M309.627 64.802h10.121c3.432 0 5.148-1.825 5.148-5.477v-3.766c0-3.651-1.716-5.476-5.148-5.476h-10.121v14.72ZM305 86.134V46h14.864c6.671 0 10.007 3.815 10.007 11.443s-3.336 11.442-10.007 11.442h-10.237v17.25H305Z" /><path d="M267.276 35.246h-.578c-.424 1.803-1.456 3.297-3.095 4.485-1.639 1.189-3.943 1.783-6.912 1.783-2.198 0-4.203-.412-6.016-1.236-1.812-.824-3.354-2.079-4.626-3.767-1.273-1.686-2.266-3.842-2.979-6.468-.714-2.625-1.07-5.721-1.07-9.286 0-7.168 1.35-12.42 4.049-15.755C248.747 1.667 252.546 0 257.443 0c3.548 0 6.381.757 8.503 2.27 2.12 1.516 3.778 3.594 4.973 6.24l-3.816 2.3c-.772-2.108-1.949-3.757-3.529-4.946-1.581-1.187-3.624-1.782-6.13-1.782-3.356 0-5.939 1.102-7.75 3.306-1.814 2.205-2.72 5.167-2.72 8.884v8.97c0 3.719.906 6.68 2.72 8.884 1.811 2.204 4.394 3.306 7.75 3.306 1.31 0 2.553-.191 3.73-.575 1.176-.383 2.198-.95 3.065-1.696a7.998 7.998 0 0 0 2.054-2.76c.5-1.093.752-2.329.752-3.71v-4.37h-7.982V20.24h12.494v20.585h-4.281v-5.578Z" /><path d="m153.226 12.592.072-6.899-3.253 6.9-8.676 17.71-8.676-17.71-3.236-6.508.055 6.507v27.542H125V0h6.131l7.288 15.582 3.028 6.316 2.872-6.316L151.607 0h6.131v40.134h-4.512V12.592Zm19.466 27.542V36.34h5.09V3.795h-5.09V0h14.806v3.795h-5.09V36.34h5.09v3.795h-14.806Zm36.67-26.047-3.702-7.243v33.29h-4.512V.002h5.67l13.418 26.046 4.107 8.28-.405-8.28V.001h4.511v40.134h-5.668l-13.418-26.048Z"  fill-rule="evenodd"/><path d="m107.226 12.592.073-6.899-3.254 6.9-8.677 17.71-8.675-17.71-3.236-6.51-.002-.276.057 6.785v27.542H79V0h6.13l7.29 15.582 3.081 6.43-.066-.09 2.884-6.34L105.607 0h6.131v40.134h-4.512V12.592Z" /><path d="M8.502 40.278c1.813.824 3.855 1.236 6.131 1.236 3.317 0 6.024-.756 8.127-2.272 2.1-1.513 3.73-3.708 4.887-6.583l-3.701-2.3c-.733 2.3-1.814 4.053-3.24 5.261-1.426 1.208-3.451 1.812-6.073 1.812-3.085 0-5.466-1.102-7.143-3.306-1.677-2.204-2.516-5.165-2.516-8.884v-8.97c0-3.717.839-6.68 2.516-8.884 1.677-2.204 4.058-3.306 7.143-3.306 2.546 0 4.502.566 5.871 1.697 1.368 1.13 2.42 2.789 3.153 4.973l3.701-2.242c-1.156-2.876-2.738-5.012-4.742-6.412C20.608.7 17.95 0 14.633 0c-2.276 0-4.318.413-6.13 1.236-1.814.825-3.346 2.08-4.6 3.766-1.253 1.687-2.217 3.844-2.89 6.469C.336 14.097 0 17.19 0 20.757c0 3.564.337 6.66 1.012 9.285.674 2.627 1.638 4.783 2.892 6.47 1.253 1.687 2.785 2.942 4.598 3.766Zm34.86-13.598V.69h-4.627v25.069c0 2.683.232 5.012.694 6.987.463 1.974 1.205 3.613 2.227 4.915 1.021 1.305 2.371 2.271 4.049 2.904 1.677.633 3.73.949 6.16.949 2.429 0 4.482-.316 6.16-.949s3.026-1.6 4.048-2.904c1.021-1.302 1.764-2.94 2.227-4.915.464-1.975.695-4.304.695-6.987V.689h-4.628v25.99c0 3.604-.627 6.296-1.88 8.079-1.253 1.782-3.46 2.674-6.622 2.674-1.582 0-2.92-.22-4.02-.662-1.1-.44-1.976-1.111-2.631-2.012-.657-.9-1.129-2.021-1.418-3.364-.289-1.34-.434-2.913-.434-4.714Z"  fill-rule="evenodd"/></svg>
