<svg aria-hidden="true" focusable="false" width="24" height="24" viewBox="0 0 24 24" fill="none" xmlns="http://www.w3.org/2000/svg">
<path d="M8 4.72727V5.45455H6.4C5.7376 5.45455 5.136 5.69964 4.7032 6.09382C4.2704 6.488 4 7.03418 4 7.63636V17.8182C4 18.4204 4.2696 18.9673 4.7032 19.3607C5.1368 19.7542 5.7376 20 6.4 20H17.6C18.2624 20 18.864 19.7549 19.2968 19.3607C19.7296 18.9665 20 18.4204 20 17.8182V7.63636C20 7.03418 19.7304 6.48727 19.2968 6.09382C18.8632 5.70036 18.2624 5.45455 17.6 5.45455H16V4.72727C16 4.32582 15.6416 4 15.2 4C14.7584 4 14.4 4.32582 14.4 4.72727V5.45455H9.6V4.72727C9.6 4.32582 9.2416 4 8.8 4C8.3584 4 8 4.32582 8 4.72727ZM18.4 9.81818H5.6V7.63636C5.6 7.43564 5.6888 7.25455 5.8344 7.12218C5.98 6.98982 6.1792 6.90909 6.4 6.90909H8V7.63636C8 8.03782 8.3584 8.36364 8.8 8.36364C9.2416 8.36364 9.6 8.03782 9.6 7.63636V6.90909H14.4V7.63636C14.4 8.03782 14.7584 8.36364 15.2 8.36364C15.6416 8.36364 16 8.03782 16 7.63636V6.90909H17.6C17.8208 6.90909 18.02 6.98982 18.1656 7.12218C18.3112 7.25455 18.4 7.43564 18.4 7.63636V9.81818ZM5.6 11.2727H18.4V17.8182C18.4 18.0189 18.3112 18.2 18.1656 18.3324C18.02 18.4647 17.8208 18.5455 17.6 18.5455H6.4C6.1792 18.5455 5.98 18.4647 5.8344 18.3324C5.6888 18.2 5.6 18.0189 5.6 17.8182V11.2727Z" fill="currentColor"/>
</svg>
