<svg aria-hidden="true" focusable="false" width="24" height="24" viewBox="0 0 24 24" fill="none" xmlns="http://www.w3.org/2000/svg">
<path d="M16.8 8.36364V17.8182C16.8 18.0189 16.7112 18.2 16.5656 18.3324C16.42 18.4647 16.2208 18.5455 16 18.5455H8C7.7792 18.5455 7.58 18.4647 7.4344 18.3324C7.2888 18.2 7.2 18.0189 7.2 17.8182V8.36364H16.8ZM16 6.90909V6.18182C16 5.57964 15.7304 5.03273 15.2968 4.63927C14.8632 4.24582 14.2624 4 13.6 4H10.4C9.7376 4 9.136 4.24509 8.7032 4.63927C8.2704 5.03345 8 5.57964 8 6.18182V6.90909H4.8C4.3584 6.90909 4 7.23491 4 7.63636C4 8.03782 4.3584 8.36364 4.8 8.36364H5.6V17.8182C5.6 18.4204 5.8696 18.9673 6.3032 19.3607C6.7368 19.7542 7.3376 20 8 20H16C16.6624 20 17.264 19.7549 17.6968 19.3607C18.1296 18.9665 18.4 18.4204 18.4 17.8182V8.36364H19.2C19.6416 8.36364 20 8.03782 20 7.63636C20 7.23491 19.6416 6.90909 19.2 6.90909H16ZM9.6 6.90909V6.18182C9.6 5.98109 9.6888 5.8 9.8344 5.66764C9.98 5.53527 10.1792 5.45455 10.4 5.45455H13.6C13.8208 5.45455 14.02 5.53527 14.1656 5.66764C14.3112 5.8 14.4 5.98109 14.4 6.18182V6.90909H9.6ZM9.6 11.2727V15.6364C9.6 16.0378 9.9584 16.3636 10.4 16.3636C10.8416 16.3636 11.2 16.0378 11.2 15.6364V11.2727C11.2 10.8713 10.8416 10.5455 10.4 10.5455C9.9584 10.5455 9.6 10.8713 9.6 11.2727ZM12.8 11.2727V15.6364C12.8 16.0378 13.1584 16.3636 13.6 16.3636C14.0416 16.3636 14.4 16.0378 14.4 15.6364V11.2727C14.4 10.8713 14.0416 10.5455 13.6 10.5455C13.1584 10.5455 12.8 10.8713 12.8 11.2727Z" fill="currentColor"/>
</svg>
