<svg aria-hidden="true" focusable="false" width="24" height="24" viewBox="0 0 24 24" fill="none" xmlns="http://www.w3.org/2000/svg">
<path d="M12.0002 19.9991H19.2C19.6416 19.9991 20 19.6242 20 19.1624C20 18.7005 19.6416 18.3256 19.2 18.3256H12.0002C11.5586 18.3256 11.2002 18.7005 11.2002 19.1624C11.2002 19.6242 11.5586 19.9991 12.0002 19.9991ZM15.0345 4.76477L5.03469 15.2239C4.93709 15.3251 4.86109 15.4582 4.82429 15.613L4.02431 18.9599C3.99311 19.0854 3.99071 19.2259 4.02431 19.3657C4.13151 19.8142 4.5659 20.0869 4.99469 19.9748L8.19463 19.1381C8.32822 19.1038 8.45862 19.0301 8.56662 18.918L18.5664 8.45893C19.0536 7.94936 19.2976 7.27914 19.2976 6.61227C19.2976 5.94539 19.0536 5.27517 18.5664 4.76561C18.0792 4.25604 17.4376 4 16.8001 4C16.1625 4 15.5217 4.2552 15.0345 4.76477ZM16.1657 5.9479C16.3409 5.76466 16.5689 5.67346 16.8001 5.67346C17.0313 5.67346 17.2593 5.76466 17.4344 5.9479C17.6096 6.13115 17.6968 6.36961 17.6968 6.61143C17.6968 6.85324 17.6096 7.09171 17.4344 7.27495L7.59144 17.5701L5.89947 18.0127L6.32266 16.243L16.1657 5.9479Z" fill="currentColor"/>
</svg>
