<svg aria-hidden="true" focusable="false" width="24" height="24" viewBox="0 0 24 24" fill="none" xmlns="http://www.w3.org/2000/svg">
<path d="M12 6.07866L17.176 8.66666L12 11.2547L6.824 8.66666L12 6.07866ZM11.702 4.73733L5.03534 8.07066C4.706 8.23533 4.57267 8.63533 4.73734 8.96466C4.80467 9.09999 4.91134 9.20199 5.03534 9.26266L11.702 12.596C11.8967 12.6933 12.1153 12.6867 12.298 12.596L18.9647 9.26266C19.294 9.09799 19.4273 8.69733 19.2627 8.36799C19.1953 8.23333 19.088 8.13133 18.9647 8.06999L12.298 4.73666C12.1033 4.63933 11.8847 4.64599 11.702 4.73666V4.73733ZM5.03534 15.9293L11.702 19.2627C11.8967 19.36 12.1153 19.3533 12.298 19.2627L18.9647 15.9293C19.294 15.7647 19.4273 15.364 19.2627 15.0347C19.098 14.7053 18.6973 14.572 18.368 14.7367L12 17.9213L5.63134 14.7373C5.302 14.5727 4.90134 14.706 4.73667 15.0353C4.572 15.3647 4.70534 15.7653 5.03467 15.93L5.03534 15.9293ZM5.03534 12.596L11.702 15.9293C11.8967 16.0267 12.1153 16.02 12.298 15.9293L18.9647 12.596C19.294 12.4313 19.4273 12.0307 19.2627 11.7013C19.098 11.372 18.6973 11.2387 18.368 11.4033L12 14.588L5.63134 11.404C5.302 11.2393 4.90134 11.3727 4.73667 11.702C4.572 12.0313 4.70534 12.432 5.03467 12.5967L5.03534 12.596Z" fill="currentColor"/>
</svg>
