<svg aria-hidden="true" focusable="false" width="24" height="24" viewBox="0 0 24 24" fill="none" xmlns="http://www.w3.org/2000/svg">
<path d="M15.2327 15.0847C15.2055 15.1055 15.1791 15.1287 15.1535 15.1543C15.1279 15.1799 15.1055 15.2055 15.0839 15.2335C14.0775 16.2038 12.7087 16.7998 11.1999 16.7998C9.65353 16.7998 8.25435 16.1742 7.23996 15.1599C6.22557 14.1455 5.59998 12.7463 5.59998 11.1999C5.59998 9.65353 6.22557 8.25435 7.23996 7.23996C8.25435 6.22557 9.65353 5.59998 11.1999 5.59998C12.7463 5.59998 14.1455 6.22557 15.1599 7.23996C16.1742 8.25435 16.7998 9.65353 16.7998 11.1999C16.7998 12.7087 16.2038 14.0775 15.2327 15.0847ZM19.7654 18.6342L16.8254 15.6943C17.8102 14.4623 18.3998 12.8999 18.3998 11.1999C18.3998 9.21194 17.5934 7.41116 16.291 6.10877C14.9887 4.80639 13.1879 4 11.1999 4C9.21194 4 7.41116 4.80639 6.10877 6.10877C4.80639 7.41116 4 9.21194 4 11.1999C4 13.1879 4.80639 14.9887 6.10877 16.291C7.41116 17.5934 9.21194 18.3998 11.1999 18.3998C12.8999 18.3998 14.4623 17.8102 15.6943 16.8254L18.6342 19.7654C18.947 20.0782 19.4534 20.0782 19.7654 19.7654C20.0774 19.4526 20.0782 18.9462 19.7654 18.6342Z" fill="currentColor"/>
</svg>
