<svg width="516" height="78" viewBox="0 0 516 78" fill="none" xmlns:xlink="http://www.w3.org/1999/xlink" xmlns="http://www.w3.org/2000/svg"><defs><path id="c" d="M516 0v78H0V0h516Z"/><path id="a" d="M0 0h516v78H0z"/><clipPath id="b"><use xlink:href="#a"/></clipPath></defs><g clip-path="url(#b)"><use xlink:href="#c" style="mix-blend-mode:normal"/><path d="M14.633 41.514c-2.276 0-4.318-.412-6.13-1.236-1.814-.824-3.346-2.079-4.6-3.767-1.253-1.686-2.217-3.842-2.89-6.469C.336 27.418 0 24.322 0 20.757c0-3.565.337-6.66 1.012-9.286.674-2.625 1.638-4.782 2.892-6.469 1.253-1.686 2.785-2.94 4.598-3.766C10.315.413 12.357 0 14.633 0c3.317 0 5.976.7 7.983 2.098 2.004 1.4 3.586 3.536 4.742 6.412l-3.701 2.242c-.733-2.184-1.785-3.843-3.153-4.973-1.37-1.13-3.325-1.697-5.87-1.697-3.086 0-5.467 1.102-7.144 3.306-1.677 2.205-2.516 5.167-2.516 8.884v8.97c0 3.719.839 6.68 2.516 8.884 1.677 2.204 4.058 3.306 7.143 3.306 2.622 0 4.647-.604 6.073-1.812 1.426-1.208 2.506-2.96 3.24-5.26l3.701 2.3c-1.157 2.874-2.786 5.069-4.887 6.582-2.103 1.516-4.81 2.272-8.127 2.272M43.363.69v25.99c0 1.801.144 3.373.433 4.714.29 1.343.761 2.463 1.418 3.364.655.9 1.532 1.572 2.631 2.012 1.1.442 2.438.662 4.02.662 3.161 0 5.37-.892 6.623-2.674 1.252-1.783 1.879-4.475 1.879-8.078V.69h4.628v25.069c0 2.683-.231 5.012-.695 6.987-.462 1.974-1.206 3.613-2.227 4.915-1.022 1.305-2.37 2.271-4.048 2.904s-3.731.949-6.16.949c-2.43 0-4.483-.316-6.16-.949-1.678-.633-3.028-1.6-4.049-2.904-1.022-1.302-1.764-2.94-2.227-4.915-.462-1.975-.694-4.304-.694-6.987V.689h4.627Z" style="fill:#0c161b;fill-rule:evenodd;mix-blend-mode:normal" transform="translate(17.458 21.159)"/></g><path d="m28.226 12.592.072-6.899-3.253 6.9-8.677 17.71-8.675-17.71-3.236-6.51-.002-.276.057 6.785v27.542H0V0h6.131l7.288 15.582 3.082 6.43-.066-.09 2.884-6.34L26.607 0h6.131v40.134h-4.512V12.592Zm19.466 27.542V36.34h5.09V3.795h-5.09V0h14.806v3.795h-5.09V36.34h5.09v3.795H47.692Zm36.67-26.047L80.66 6.844V5.806v34.329h-4.512V0h5.67l13.418 26.046 4.107 8.28-.405-8.28V.001h4.511v40.134h-5.668L84.362 14.087Z" style="fill:#0c161b;fill-rule:evenodd;mix-blend-mode:normal" transform="translate(142.193 21.849)"/><g clip-path="url(#b)"><use xlink:href="#c" style="mix-blend-mode:normal"/><path d="M25.276 35.246h-.578c-.424 1.803-1.456 3.297-3.095 4.485-1.639 1.189-3.943 1.783-6.912 1.783-2.198 0-4.203-.412-6.016-1.236-1.812-.824-3.354-2.079-4.626-3.767-1.273-1.686-2.266-3.842-2.979-6.468C.356 27.418 0 24.322 0 20.757 0 13.59 1.35 8.337 4.049 5.002 6.747 1.667 10.546 0 15.443 0c3.548 0 6.381.757 8.503 2.27 2.12 1.516 3.778 3.594 4.973 6.24l-3.816 2.3c-.772-2.108-1.949-3.757-3.529-4.946-1.581-1.187-3.624-1.782-6.13-1.782-3.356 0-5.939 1.102-7.75 3.306-1.814 2.205-2.72 5.167-2.72 8.884v8.97c0 3.719.906 6.68 2.72 8.884 1.811 2.204 4.394 3.306 7.75 3.306 1.31 0 2.553-.191 3.73-.575 1.176-.383 2.198-.95 3.065-1.696a7.998 7.998 0 0 0 2.054-2.76c.5-1.093.752-2.329.752-3.71v-4.37h-7.982V20.24h12.494v20.585h-4.281v-5.578Z" style="fill:#0c161b;mix-blend-mode:normal" transform="translate(259.177 21.159)"/><path d="M25.276 35.246h-.578c-.424 1.803-1.456 3.297-3.095 4.485-1.639 1.189-3.943 1.783-6.912 1.783-2.198 0-4.203-.412-6.016-1.236-1.812-.824-3.354-2.079-4.626-3.767-1.273-1.686-2.266-3.842-2.979-6.468C.356 27.418 0 24.322 0 20.757 0 13.59 1.35 8.337 4.049 5.002 6.747 1.667 10.546 0 15.443 0c3.548 0 6.381.757 8.503 2.27 2.12 1.516 3.778 3.594 4.973 6.24l-3.816 2.3c-.772-2.108-1.949-3.757-3.529-4.946-1.581-1.187-3.624-1.782-6.13-1.782-3.356 0-5.939 1.102-7.75 3.306-1.814 2.205-2.72 5.167-2.72 8.884v8.97c0 3.719.906 6.68 2.72 8.884 1.811 2.204 4.394 3.306 7.75 3.306 1.31 0 2.553-.191 3.73-.575 1.176-.383 2.198-.95 3.065-1.696a7.998 7.998 0 0 0 2.054-2.76c.5-1.093.752-2.329.752-3.71v-4.37h-7.982V20.24h12.494v20.585h-4.281v-5.578Z" style="fill:#0c161b;mix-blend-mode:normal" transform="translate(322.164 21.159)"/><path d="M14.748 18.974c3.432 0 5.148-1.832 5.148-5.498V9.581c0-3.666-1.716-5.499-5.148-5.499H4.627v14.892h10.121ZM4.627 40.134H0V0h14.864c6.671 0 10.007 3.814 10.007 11.442 0 6.44-2.391 10.158-7.173 11.154l8.156 17.538h-5.206l-7.577-17.25H4.627v17.25Z" style="fill:#0c161b;mix-blend-mode:normal" transform="translate(364.007 21.849)"/><path d="M15.443 37.432c3.355 0 5.938-1.102 7.752-3.306 1.81-2.204 2.718-5.165 2.718-8.884v-8.97c0-3.717-.907-6.678-2.718-8.884-1.814-2.204-4.397-3.306-7.752-3.306-3.354 0-5.939 1.102-7.75 3.306-1.813 2.206-2.72 5.167-2.72 8.884v8.97c0 3.719.907 6.68 2.72 8.884 1.811 2.204 4.396 3.306 7.75 3.306m0 4.082c-4.897 0-8.696-1.667-11.393-5.003C1.35 33.176 0 27.926 0 20.757 0 13.59 1.35 8.337 4.05 5.002 6.747 1.667 10.546 0 15.443 0s8.695 1.667 11.394 5.002c2.7 3.336 4.05 8.587 4.05 15.755 0 7.169-1.35 12.42-4.05 15.754-2.7 3.336-6.497 5.003-11.394 5.003" style="fill:#0c161b;mix-blend-mode:normal" transform="translate(398.948 21.159)"/><path d="M4.627 0v25.99c0 1.802.145 3.373.434 4.715.289 1.342.76 2.462 1.417 3.363.655.901 1.532 1.572 2.631 2.013 1.1.441 2.439.66 4.02.66 3.162 0 5.369-.891 6.623-2.673 1.253-1.782 1.88-4.475 1.88-8.078V0h4.627v25.07c0 2.683-.231 5.011-.694 6.986-.463 1.974-1.205 3.613-2.227 4.915-1.023 1.305-2.372 2.271-4.049 2.905-1.677.632-3.73.948-6.16.948-2.428 0-4.483-.316-6.16-.948-1.677-.634-3.027-1.6-4.049-2.905-1.022-1.302-1.763-2.94-2.226-4.915C.231 30.08 0 27.753 0 25.069V0h4.627Z" style="fill:#0c161b;mix-blend-mode:normal" transform="translate(440.368 21.849)"/><path d="M4.627 18.802h10.121c3.432 0 5.148-1.825 5.148-5.477V9.559c0-3.651-1.716-5.476-5.148-5.476H4.627v14.72ZM0 40.134V0h14.864c6.671 0 10.007 3.815 10.007 11.443s-3.336 11.442-10.007 11.442H4.627v17.25H0Z" style="fill:#0c161b;mix-blend-mode:normal" transform="translate(478.321 21.849)"/></g><path d="m28.226 12.592.073-6.899-3.254 6.9-8.677 17.71-8.675-17.71-3.236-6.51-.002-.276.057 6.785v27.542H0V0h6.13l7.29 15.582 3.082 6.43-.066-.09 2.883-6.34L26.607 0h6.131v40.134h-4.512V12.592Z" style="fill:#0c161b;mix-blend-mode:normal" transform="translate(95.547 21.849)"/></svg>