<svg width="338" height="225" fill="none" xmlns:xlink="http://www.w3.org/1999/xlink" xmlns="http://www.w3.org/2000/svg"><defs><path id="c" d="M338 0v225H0V0h338Z"/><path id="a" d="M0 0h338v225H0z"/><clipPath id="b"><use xlink:href="#a"/></clipPath></defs><g clip-path="url(#b)"><use xlink:href="#c" style="mix-blend-mode:normal"/><path d="M38.395 44.851c-2.162 2.024-5.1 2.847-7.413 3.335-.719.15-1.452.285-2.16.417-1.888.346-3.842.706-5.648 1.406-3.82 1.482-6.892 4.427-9.866 7.273-1.012.97-2.06 1.974-3.123 2.908A46.39 46.39 0 0 1 0 66.983v-.628a45.595 45.595 0 0 0 9.813-6.587c1.054-.922 2.1-1.924 3.105-2.889 3.014-2.885 6.13-5.869 10.053-7.39 1.854-.72 3.836-1.086 5.75-1.438a83.279 83.279 0 0 0 2.142-.413c2.247-.476 5.089-1.266 7.149-3.195 1.76-1.648 2.965-4.596 1.871-7.04-.245-.548-.557-.955-.93-1.215-1.003-.703-2.46-.354-3.467-.028-4.808 1.545-9.14 4.4-13.33 7.161-1.64 1.08-3.338 2.2-5.043 3.222A71.763 71.763 0 0 1 0 54.031v-.582a71.57 71.57 0 0 0 16.823-7.383c1.697-1.02 3.388-2.135 5.024-3.212 4.221-2.78 8.585-5.658 13.465-7.229 1.124-.359 2.756-.742 3.963.105.456.317.834.805 1.118 1.442 1.261 2.811-.151 5.95-1.998 7.68m104.332-39.55c4.2 1.96 8.543 3.985 12.111 6.87 4.347 3.516 7.457 8.215 10.464 12.764l17.885 27.042c3.425 5.181 6.969 10.538 11.946 14.444 5.503 4.322 12.023 5.916 17.44 4.27 1.354-.41 2.675-1.032 3.952-1.63 1.894-.893 3.856-1.813 5.982-2.085.484-.063.972-.09 1.46-.09 3.221 0 6.516 1.248 9.716 2.461 4.905 1.862 9.539 3.62 13.243.61 3.371-2.737 3.283-7.665 3.202-12.43-.088-5.075-.178-10.323 3.994-12.826 2.399-1.438 5.082-1.57 7.676-1.696 1.917-.094 3.894-.189 5.721-.818 2.103-.727 4.053-1.958 5.937-3.15 2.353-1.489 4.784-3.024 7.568-3.626 4.22-.912 8.558.96 12.385 2.607.497.214.984.425 1.464.625 4.856 2.033 9.916 3.028 15.469 3.046 9.997.025 19.608-2.85 27.658-8.044v.667c-8.078 5.133-17.68 7.965-27.659 7.94-5.628-.018-10.758-1.028-15.686-3.089-.481-.203-.972-.414-1.467-.627-3.753-1.618-8-3.446-12.045-2.574-2.688.58-5.074 2.09-7.382 3.55-1.914 1.21-3.894 2.46-6.058 3.206-1.903.655-3.923.754-5.877.85-2.641.13-5.137.25-7.414 1.617-3.892 2.334-3.808 7.191-3.721 12.332.084 4.9.173 9.968-3.41 12.876-1.567 1.274-3.267 1.758-5.062 1.758-2.729 0-5.683-1.118-8.739-2.278-3.617-1.37-7.36-2.79-10.903-2.337-2.034.258-3.954 1.161-5.812 2.033-1.297.608-2.636 1.238-4.028 1.66-5.592 1.701-12.307.07-17.953-4.366-5.049-3.962-8.617-9.36-12.067-14.577l-17.886-27.043c-2.982-4.51-6.069-9.173-10.347-12.636-3.512-2.843-7.825-4.852-11.997-6.797-3.681-1.716-7.436-3.465-10.64-5.81h.941c2.965 2.05 6.398 3.65 9.939 5.3m17.992-5.3h.967c3.969 2.868 7.94 6.29 10.699 10.588 2.431 3.782 3.865 8.122 5.252 12.321.561 1.696 1.142 3.45 1.779 5.14a65.089 65.089 0 0 0 20.529 28.085c5.099 4.032 9.42 5.838 13.578 5.684 2.146-.082 4.251-.853 6.287-1.598 2.144-.785 4.363-1.598 6.645-1.61h.03c1.803 0 3.813 1.087 5.938 2.243 3.121 1.693 6.346 3.442 8.558 1.21 1.39-1.402 1.545-4.618 1.693-7.727.152-3.167.294-6.159 1.611-7.748 2.599-3.139 8.419-4.857 14.049-6.519 5.193-1.533 10.564-3.119 13.117-5.775 5.015-5.21 7.341-12.867 6.071-19.976-.633-3.56-4.565-7.51-8.367-11.329A161.378 161.378 0 0 1 266.226 0h.78c.827.866 1.691 1.733 2.549 2.593 3.862 3.881 7.856 7.892 8.523 11.627 1.301 7.284-1.082 15.128-6.22 20.466-2.656 2.763-8.098 4.368-13.364 5.924-5.547 1.636-11.287 3.33-13.776 6.336-1.194 1.446-1.342 4.48-1.482 7.417-.153 3.215-.313 6.542-1.854 8.096-.44.446-.912.754-1.402.951a4.04 4.04 0 0 1-1.536.288c-1.959 0-4.149-1.188-6.288-2.352-2.064-1.116-4.012-2.174-5.672-2.174h-.026c-2.184.014-4.259.774-6.457 1.578-2.075.76-4.222 1.547-6.455 1.628-4.307.163-8.739-1.68-13.95-5.804a65.66 65.66 0 0 1-20.707-28.326c-.643-1.7-1.224-3.46-1.788-5.164-1.375-4.162-2.798-8.467-5.188-12.19-2.858-4.45-7.06-7.964-11.194-10.894m15.08.62a18.13 18.13 0 0 1-.521-.62h.736c.067.084.138.166.211.247 1.592 1.812 3.379 3.507 5.111 5.147 1.225 1.162 2.494 2.362 3.673 3.592 3.289 3.403 5.53 6.508 7.061 9.767 1.146 2.448 1.927 5.111 2.684 7.687.222.763.447 1.527.682 2.284 1.78 5.802 4.582 11.65 8.329 17.387 3.343 5.116 8.6 7.723 14.423 7.15 2.315-.226 4.716-.963 7.135-2.188 1.666-.844 3.256-1.829 4.795-2.777.572-.354 1.141-.706 1.707-1.05 3.769-2.266 7.025-4.223 10.777-7.294.804-.659 1.519-1.432 2.213-2.18.523-.569 1.067-1.156 1.654-1.7 1.156-1.07 2.465-1.998 3.726-2.896 1.586-1.125 3.227-2.289 4.536-3.72a12.893 12.893 0 0 0 2.104-3.126 12.958 12.958 0 0 0 1.252-5.77c-.033-2.085-.552-4.064-1.1-6.157-.275-1.035-.554-2.104-.768-3.178-.856-4.292-1.75-7.994-2.717-11.225h.589c.953 3.211 1.837 6.88 2.68 11.115.212 1.06.491 2.118.759 3.144.536 2.033 1.088 4.138 1.121 6.29a13.538 13.538 0 0 1-1.307 6.024 13.405 13.405 0 0 1-2.196 3.26c-1.35 1.478-3.013 2.66-4.626 3.802-1.249.885-2.543 1.803-3.666 2.85-.572.527-1.109 1.107-1.627 1.667-.708.762-1.436 1.551-2.269 2.233-3.784 3.1-7.056 5.068-10.841 7.343-.567.341-1.133.692-1.706 1.046-1.547.957-3.148 1.943-4.837 2.8-2.481 1.256-4.947 2.012-7.331 2.246a16.17 16.17 0 0 1-1.638.082c-5.381 0-10.167-2.667-13.313-7.485-3.774-5.78-6.602-11.677-8.4-17.527-.234-.763-.457-1.527-.682-2.292-.75-2.555-1.525-5.197-2.652-7.605-1.503-3.204-3.713-6.26-6.957-9.62-1.17-1.216-2.433-2.416-3.657-3.57-1.738-1.649-3.534-3.353-5.147-5.184M164.211.062 164.127 0h.959l.54.394c5.184 3.757 10.102 7.577 13.319 12.912 1.993 3.31 3.205 7.062 4.376 10.688.453 1.411.924 2.871 1.434 4.28 3.159 8.744 8.702 16.993 16.464 24.513 3.107 3.013 8.034 6.53 13.858 6.18 2.314-.139 4.54-.95 6.601-1.808.355-.147.71-.299 1.063-.448 1.874-.793 3.644-1.544 5.502-1.898 1.815-.346 3.301.242 4.614.76 1.85.73 3.445 1.36 5.567-.667a4.11 4.11 0 0 0 .945-1.353c.22-.492.371-1.038.552-1.668.555-1.977 1.319-4.688 5.093-8.804 2.204-2.404 6.247-4.274 10.157-6.083 3.759-1.738 7.646-3.538 9.768-5.765a19.25 19.25 0 0 0 3.737-5.673c1.462-3.392 1.958-7.057 1.431-10.604-.434-2.916-2.943-5.706-5.367-8.403-1.9-2.109-3.85-4.28-4.851-6.553h.62c.995 2.112 2.848 4.174 4.652 6.18 2.479 2.758 5.044 5.61 5.504 8.695.542 3.648.031 7.42-1.473 10.907a19.773 19.773 0 0 1-3.844 5.84c-2.194 2.305-6.132 4.124-9.941 5.885-3.859 1.786-7.85 3.631-9.979 5.954-3.681 4.017-4.424 6.652-4.966 8.576-.366 1.3-.654 2.326-1.648 3.274-1.204 1.15-2.268 1.535-3.276 1.535-.99 0-1.925-.37-2.889-.75-1.299-.516-2.647-1.047-4.302-.729-1.795.342-3.54 1.08-5.387 1.862-.354.151-.71.301-1.067.45-2.106.874-4.387 1.707-6.782 1.848a14.81 14.81 0 0 1-.838.024c-5.66 0-10.407-3.414-13.446-6.358-7.827-7.583-13.411-15.902-16.602-24.73-.513-1.418-.987-2.88-1.44-4.296-1.162-3.596-2.363-7.317-4.322-10.569-3.162-5.248-8.033-9.025-13.169-12.752l-1.083-.784Zm8.547 3.24c-1.308-1.075-2.636-2.163-3.924-3.302h.857c1.13.981 2.283 1.93 3.425 2.866.739.607 1.475 1.21 2.199 1.82 3.81 3.185 7.684 6.767 10.19 11.342 1.564 2.852 2.553 6.03 3.509 9.104.347 1.11.702 2.253 1.08 3.364 2.362 6.95 6.418 13.801 12.4 20.951 3.943 4.713 8.966 7.081 14.139 6.665 2.069-.163 4.315-.816 6.866-1.996.842-.392 1.683-.81 2.492-1.215 1.384-.696 2.692-1.35 4.042-1.874.708-.276 1.39-.526 2.047-.765 3.041-1.11 5.665-2.07 8.733-4.814 1.079-.968 1.97-2.147 2.829-3.288.654-.867 1.331-1.764 2.094-2.58 1.72-1.828 4.709-3.439 7.602-5 2.856-1.539 5.81-3.133 7.464-4.897a15.912 15.912 0 0 0 2.917-4.396 16.058 16.058 0 0 0 1.342-8.184c-.227-2.265-1.862-4.208-3.596-6.264-1.537-1.828-3.127-3.716-3.639-5.86A90.045 90.045 0 0 1 256.794 0h.575a92.595 92.595 0 0 0 1.006 4.848c.483 2.018 2.027 3.854 3.525 5.63 1.707 2.032 3.478 4.133 3.726 6.568a16.677 16.677 0 0 1-1.391 8.47 16.471 16.471 0 0 1-3.022 4.553c-1.719 1.83-4.712 3.445-7.606 5.006-2.853 1.538-5.805 3.13-7.458 4.89-.746.793-1.413 1.677-2.059 2.531-.874 1.164-1.781 2.366-2.903 3.37-1.573 1.406-3.027 2.357-4.476 3.093-1.447.738-2.89 1.266-4.437 1.832-.654.24-1.334.487-2.038.76-1.322.514-2.619 1.163-3.992 1.853-.814.407-1.657.83-2.509 1.22-2.612 1.21-4.921 1.882-7.057 2.05-.404.031-.807.048-1.21.048-4.927 0-9.648-2.424-13.409-6.915-6.027-7.203-10.117-14.113-12.498-21.128-.381-1.12-.738-2.267-1.086-3.378-.946-3.049-1.928-6.2-3.464-9.003-2.461-4.494-6.288-8.029-10.06-11.182-.722-.608-1.455-1.209-2.193-1.815m102.385 168.093c2.276 1.612 5.03 2.411 7.696 3.182 1.907.553 3.879 1.122 5.698 1.988 2.373 1.131 4.534 3.327 7.036 5.872 7.141 7.26 16.9 17.182 42.427 15.519v.566c-1.883.121-3.71.182-5.48.182-8.851 0-16.337-1.527-22.752-4.624-6.729-3.248-11.093-7.686-14.596-11.25-2.467-2.505-4.595-4.67-6.878-5.756-1.776-.847-3.726-1.412-5.611-1.957-2.784-.805-5.662-1.638-8.049-3.395l-.167-.121.069-.194c.653-1.933 3.244-2.036 5.261-1.536 1.821.45 3.617 1.083 5.354 1.696 1.5.529 3.054 1.077 4.606 1.502 2.064.562 4.213.927 6.291 1.279 1.712.293 3.484.594 5.209 1.005 2.286.545 5.735 1.912 9.725 3.493 8.302 3.287 19.204 7.605 27.018 7.405v.563c-7.946.19-18.891-4.144-27.227-7.445-3.971-1.576-7.398-2.934-9.647-3.468-1.706-.407-3.468-.709-5.174-.998-2.091-.355-4.252-.723-6.345-1.291-1.572-.431-3.134-.982-4.646-1.514-1.722-.61-3.505-1.237-5.299-1.682-1.381-.342-3.824-.498-4.519.979m35.493-49.204c-.1.636-.435 1.204-.79 1.803-.168.287-.343.585-.493.894-.254.523-.431 1.08-.601 1.617-.225.709-.436 1.375-.806 1.972-.569.916-1.437 1.529-2.383 1.943-.942.413-1.963.624-2.84.729-3.142.374-6.305-.124-9.367-.606-2.331-.368-4.737-.748-7.151-.748-.193 0-.389.003-.583.009-.708.017-1.588.211-2.515.416-1.668.369-3.56.785-4.656.186-2.602-1.414-1.269-5.329-.574-6.95.819-1.909 2.036-4.238 4.182-5.276 1.64-.793 3.47-.705 5.406-.61 1.309.061 2.662.13 3.961-.101 1.58-.279 3.036-.984 4.444-1.668 1.25-.607 2.541-1.234 3.894-1.541 4.385-1.008 9.372 1.884 10.675 6.184.211.701.273 1.255.197 1.747m.34-1.909c-1.381-4.569-6.679-7.637-11.338-6.571-1.413.324-2.735.962-4.012 1.584-1.375.666-2.795 1.356-4.3 1.619-1.236.217-2.556.155-3.835.093-1.919-.093-3.907-.188-5.681.667-2.31 1.119-3.593 3.561-4.45 5.563-.755 1.758-2.184 6.024.82 7.664 1.283.697 3.284.256 5.048-.132.902-.197 1.755-.386 2.408-.402 2.557-.071 5.137.337 7.632.731 2.336.368 4.728.745 7.144.745.79 0 1.584-.039 2.378-.135 1.876-.222 4.378-.914 5.636-2.933.406-.655.64-1.39.864-2.101.164-.517.332-1.054.572-1.541.136-.287.308-.577.473-.852.365-.622.743-1.261.859-2.005.089-.577.019-1.21-.218-1.994M37.958 42.758c-2.26 2.611-5.832 3.527-9.287 4.413-1.413.363-2.87.738-4.214 1.221-4.073 1.465-7.527 4.153-10.864 6.753a117.78 117.78 0 0 1-3.496 2.654A60.08 60.08 0 0 1 0 63.68v-.588a59.641 59.641 0 0 0 9.782-5.728c1.175-.85 2.347-1.76 3.478-2.64 3.374-2.628 6.861-5.343 11.012-6.839 1.368-.492 2.843-.869 4.266-1.234 3.374-.866 6.86-1.76 9.011-4.244.64-.737.961-1.823.764-2.579a1.18 1.18 0 0 0-.772-.86c-.533-.195-1.173-.04-1.73.137-3.437 1.086-6.385 3.234-9.238 5.31a90.613 90.613 0 0 1-3.064 2.168c-5.071 3.401-10.833 5.833-16.405 8.185-2.083.88-4.538 1.915-7.104 2.281v-.538c2.43-.35 4.764-1.339 6.896-2.238 5.547-2.343 11.285-4.765 16.315-8.134 1.028-.689 2.055-1.437 3.046-2.157 2.888-2.104 5.872-4.276 9.39-5.389.645-.202 1.395-.377 2.08-.13.57.21.953.633 1.108 1.23.242.93-.118 2.19-.877 3.065m279.569 78.585c-.223.838-.693 1.575-1.192 2.354-.207.324-.42.662-.613 1.005a10.02 10.02 0 0 0-.415.807c-.485 1.055-.761 2.195-1.029 3.301-.202.827-.407 1.683-.697 2.473-.14.377-.298.742-.47 1.086-.48.953-1.041 1.675-1.712 2.209-1.584 1.263-3.788 1.359-4.962 1.303-1.98-.093-3.827-.535-5.781-1.002l-.115-.027c-.622-.149-1.326-.318-2.048-.369-.593-.045-1.176-.011-1.739.022-.637.037-1.238.071-1.858.003-1.004-.106-1.911-.464-2.87-.841-.631-.247-1.282-.501-1.961-.68-.983-.256-2.082-.368-3.349-.343-1.438.028-2.726.194-3.943.506-1.381.354-2.953 1.131-4.468 1.885-.433.213-.861.427-1.278.624-1.224.585-2.313 1.063-3.27 1.023a3.328 3.328 0 0 1-1.05-.216c-2.426-.936-3.368-4.474-2.854-7.214.522-2.767 1.744-5.143 3.445-6.694 1.194-1.1 2.586-1.879 4.057-2.699.441-.25.887-.498 1.33-.76 2.677-1.575 5.182-2.525 8.184-3.605.392-.141.793-.285 1.203-.428.895-.321 1.82-.65 2.756-.996l.468-.171c1.446-.54 2.943-1.097 4.433-1.421.454-.098.913-.18 1.36-.258a29.488 29.488 0 0 0 1.507-.29c.372-.085.747-.181 1.123-.276 1.206-.306 2.451-.624 3.611-.557 1.612.094 3.017.751 4.501 1.451a36.45 36.45 0 0 0 1.838.824c.673.276 1.352.501 2.009.723 1.878.627 3.649 1.221 4.856 2.791.455.593.782 1.311.965 2.135.194.871.206 1.652.028 2.322m.522-2.447c-.203-.902-.561-1.695-1.072-2.354-1.307-1.704-3.158-2.323-5.118-2.981a32.66 32.66 0 0 1-1.976-.708c-.628-.256-1.232-.541-1.814-.814-1.535-.722-2.986-1.406-4.71-1.504-1.242-.071-2.533.255-3.778.574-.372.095-.742.188-1.108.272-.497.113-1 .2-1.48.284-.452.08-.916.161-1.381.262-1.534.332-3.048.898-4.513 1.443l-.466.174c-.936.344-1.857.672-2.752.991l-1.205.429c-3.025 1.089-5.557 2.051-8.279 3.651-.436.259-.878.506-1.319.752-1.435.804-2.918 1.633-4.16 2.775-.898.816-1.664 1.848-2.275 3.035-.612 1.184-1.068 2.527-1.341 3.971-.574 3.026.468 6.786 3.202 7.844.379.149.794.233 1.227.253.049.002.096.002.146.002 1.044 0 2.159-.489 3.395-1.08.417-.199.849-.413 1.285-.63 1.489-.739 3.03-1.503 4.352-1.841 1.176-.301 2.426-.461 3.819-.49 1.216-.028 2.263.081 3.191.324.65.172 1.286.422 1.902.661.948.374 1.933.762 3.013.877.669.073 1.321.034 1.953-.003.544-.03 1.107-.065 1.663-.023.679.051 1.359.214 1.96.358l.115.025c1.982.476 3.854.923 5.886 1.019 1.254.058 3.613-.048 5.34-1.427.737-.585 1.346-1.366 1.863-2.396.181-.363.347-.748.498-1.144.297-.821.51-1.691.715-2.534.258-1.077.531-2.195.993-3.201.113-.25.242-.5.39-.765.186-.329.398-.658.601-.976.499-.782 1.018-1.591 1.26-2.514.203-.759.195-1.628-.022-2.591M338 199.064v.57c-3.413.473-6.74.709-9.963.709-4.646 0-9.079-.489-13.26-1.468-6.046-1.418-11.425-3.898-15.145-6.986-1.08-.894-2.172-1.837-3.228-2.748-5.561-4.789-11.312-9.742-18.437-11.078-8.65-1.62-17.093 2.374-25.255 6.238l-1.299.613c-8.023 3.78-18.361 7.62-27.178 3.724-7.844-3.465-14.199-11.602-16.189-20.731-2.39-10.96-13.132-16.099-23.52-21.066-5.91-2.826-11.492-5.493-15.52-9.146-1.55-1.404-2.754-3.406-3.918-5.341-1.389-2.304-2.825-4.689-4.823-6.01-4.186-2.767-9.257-1.673-14.626-.517-3.437.739-6.988 1.503-10.342 1.195-5.246-.482-8.987-1.984-12.6-3.431-3.54-1.421-7.197-2.888-12.285-3.398-4.907-.494-9.821.734-14.573 1.922-2.638.658-5.367 1.34-8.087 1.728-4.363.628-9.53-2.437-16.075-6.316C57.202 108.946 35.618 96.149 0 109.106v-.599c35.751-12.937 57.422-.088 71.964 8.535 6.45 3.823 11.546 6.846 15.706 6.244 2.695-.384 5.41-1.062 8.034-1.718 4.797-1.198 9.761-2.436 14.765-1.935 5.166.518 8.862 2 12.436 3.435 3.58 1.437 7.278 2.919 12.445 3.394 3.266.301 6.777-.456 10.17-1.187 5.245-1.131 10.675-2.297 15.055.599 2.106 1.395 3.574 3.833 4.995 6.191 1.144 1.9 2.326 3.864 3.814 5.214 3.969 3.597 9.513 6.249 15.385 9.056 10.511 5.026 21.377 10.221 23.827 21.451 1.956 8.96 8.183 16.942 15.867 20.337 8.608 3.802 18.795.011 26.71-3.718l1.297-.614c8.248-3.9 16.775-7.939 25.6-6.282 7.275 1.363 13.086 6.367 18.703 11.207 1.055.909 2.145 1.849 3.218 2.739 6.479 5.378 19.823 10.143 38.009 7.609m-33.184-18.79a.207.207 0 0 0-.08.163c-.015.211.162.548.431.818.301.31.612.686.966 1.119 2.676 3.248 8.152 9.903 31.867 10.486v.562c-23.988-.585-29.572-7.375-32.301-10.69a16.98 16.98 0 0 0-.935-1.083c-.305-.31-.62-.802-.593-1.249a.774.774 0 0 1 .3-.569c.396-.311.944-.131 1.176-.055.842.275 2.362.877 4.285 1.639 7.37 2.922 22.343 8.857 28.068 7.493v.577a9.77 9.77 0 0 1-2.01.185c-6.765 0-19.13-4.902-26.267-7.731-1.915-.757-3.425-1.36-4.251-1.629-.229-.076-.51-.147-.656-.036m33.185 16.675c-12-.228-21.608-2.354-28.574-6.315-5.954-3.386-8.861-7.441-10.784-10.125a41.742 41.742 0 0 0-.583-.809c-.232-.318-.447-.636-.509-1.021-.144-.9.637-1.677 1.441-1.876.757-.188 1.516-.012 2.29.205 2.122.591 5.371 1.842 9.129 3.288 9.183 3.538 21.646 8.333 27.589 7.259v.565a11.16 11.16 0 0 1-1.883.144c-6.576 0-17.576-4.236-25.91-7.442-3.745-1.443-6.979-2.689-9.073-3.271-.703-.194-1.381-.357-2.005-.203-.566.141-1.11.673-1.02 1.24.041.265.208.51.405.78.19.255.384.526.589.813 3.934 5.489 11.234 15.677 38.897 16.208l.001.56Zm-4.708-169.812c-8.201 6.717-24.011 9.434-32.895 3.023-4.62-3.334-6.807-7.036-9.028-12.3-1.695-4.036-3.588-8.337-6.454-12.649-.354-.53-.723-1.062-1.082-1.58-.813-1.176-1.648-2.374-2.333-3.63h-.643c.727 1.38 1.629 2.68 2.511 3.951.358.514.728 1.045 1.078 1.572 2.839 4.27 4.717 8.541 6.404 12.552 1.803 4.284 4 8.778 9.216 12.541 3.6 2.596 8.302 3.732 13.192 3.732 3.728 0 7.564-.66 11.098-1.837 3.535-1.178 6.768-2.87 9.293-4.938 1.543-1.263 3.099-2.869 4.351-4.664v-1.009c-1.283 2.022-3.005 3.845-4.708 5.236m-.891-22.977c-2.711-1.769-5.457-3.164-8.193-4.16h-1.757c3.214.993 6.449 2.548 9.64 4.632 2.607 1.701 4.567 3.454 5.908 5.296v-.923c-1.353-1.68-3.211-3.288-5.598-4.845M180.524.816a21.338 21.338 0 0 1-.693-.816h.73c.127.15.256.298.385.444 1.608 1.806 3.425 3.49 5.182 5.122 2.754 2.556 5.598 5.197 7.723 8.376 3.52 5.267 5.342 11.314 7.103 17.162 1.172 3.89 2.382 7.914 4.085 11.68 1.539 3.403 4.2 5.813 7.692 6.977 4.387 1.46 9.776.814 14.415-1.735 3.735-2.05 6.997-4.942 10.15-7.737 2.259-2.002 4.596-4.073 7.104-5.836.643-.456 1.32-.903 1.971-1.335 2.709-1.8 5.51-3.663 7.049-6.473 1.287-2.354 1.689-5.442 1.19-9.18-.937-7.012-3.93-13.28-8.223-17.465h.795c4.169 4.27 7.064 10.48 7.985 17.39.523 3.915.114 7.03-1.254 9.525-1.605 2.931-4.466 4.832-7.23 6.67-.648.432-1.321.876-1.958 1.327-2.484 1.747-4.807 3.805-7.053 5.8-3.18 2.814-6.463 5.728-10.255 7.806-3.087 1.696-6.5 2.571-9.754 2.571-1.777 0-3.508-.26-5.112-.796-3.644-1.213-6.419-3.729-8.025-7.279-1.717-3.797-2.934-7.84-4.113-11.75-1.748-5.809-3.554-11.812-7.03-17.01-2.089-3.123-4.91-5.744-7.639-8.275-1.767-1.64-3.594-3.335-5.22-5.163m154.895 14.577c-.996-2.59-3.021-4.973-6.185-7.287-2.8-2.045-5.79-3.637-8.889-4.729-1.763-.62-3.604-1.08-5.389-1.52-.546-.139-1.092-.274-1.642-.414A125.371 125.371 0 0 1 308.191 0h-1.881a124.42 124.42 0 0 0 6.863 1.986c.55.143 1.101.278 1.649.416 1.77.438 3.599.894 5.336 1.505 3.048 1.074 5.989 2.64 8.743 4.654 3.076 2.247 5.036 4.548 5.994 7.034 1.507 3.921-1.898 8.901-5.7 11.87-6.001 4.685-16.194 5.885-22.719 2.676-4.957-2.436-7.756-4.898-9.99-8.783-.671-1.173-1.322-2.413-2.013-3.727-1.129-2.14-2.407-4.57-4.012-7.129-.259-.414-.524-.824-.788-1.238-1.238-1.915-2.515-3.895-3.098-6.066a7.633 7.633 0 0 1-.17-3.198h-.57a8.171 8.171 0 0 0 .197 3.344c.604 2.256 1.906 4.275 3.166 6.224.262.411.528.821.784 1.232 1.597 2.542 2.868 4.961 3.992 7.093a113.166 113.166 0 0 0 2.023 3.743c2.295 3.994 5.164 6.52 10.229 9.01 2.54 1.251 5.623 1.85 8.808 1.85 2.602 0 5.276-.403 7.776-1.176 2.498-.774 4.824-1.92 6.735-3.41 3.052-2.386 7.726-7.705 5.874-12.517m1.974 11.418c.201-.17.404-.348.608-.528v.751c-.083.07-.165.137-.247.208-5.231 4.413-13.475 7.795-21.518 8.831-1.782.228-3.515.34-5.185.34-7.034 0-12.999-2.003-17.126-5.822-4.41-4.083-6.116-9.455-7.765-14.65-.148-.472-.299-.945-.452-1.414-1.86-5.79-4.019-10.328-6.799-14.28a7.444 7.444 0 0 0-.174-.247h.689c2.787 3.98 4.958 8.544 6.824 14.352l.451 1.42c1.699 5.361 3.309 10.424 7.608 14.406 11.21 10.375 33.354 4.846 43.086-3.367M338 1.814v.694A36.606 36.606 0 0 0 335.279.7a33.808 33.808 0 0 0-1.208-.7h1.132c.126.071.247.146.37.22A39.006 39.006 0 0 1 338 1.813m-12.896 25.973c-3.238 2.303-7.712 3.133-12.59 2.334-9.266-1.518-11.126-4.82-14.831-11.398-.524-.929-1.066-1.893-1.676-2.934-.192-.326-.387-.652-.581-.978-1.205-2.012-2.451-4.09-2.837-6.385-.416-2.489.505-5.65 3.043-6.603 1.22-.459 2.625-.316 3.845-.147 9.32 1.285 25.859 6.818 30.561 16.184 1.791 3.571-2.549 8.228-4.934 9.927m5.438-10.178c-4.798-9.56-21.555-15.19-30.987-16.492-1.291-.177-2.78-.324-4.121.18-2.819 1.057-3.855 4.511-3.4 7.222.403 2.4 1.679 4.525 2.907 6.581.193.324.389.65.581.974.606 1.038 1.146 1.997 1.67 2.924 1.839 3.26 3.263 5.791 5.418 7.698 2.158 1.91 5.047 3.198 9.81 3.98a22.71 22.71 0 0 0 3.638.304c3.597 0 6.842-.935 9.373-2.737 2.977-2.118 6.997-6.876 5.111-10.634m-11.104 8.763c-2.541 1.517-5.821 1.052-8.065.57-3.056-.657-4.993-1.587-6.48-3.114-1.259-1.297-2.207-2.996-3.408-5.148l-.504-.902c-.768-1.38-1.565-2.81-1.796-4.36a5.128 5.128 0 0 1-.052-.815c.015-1.212.493-2.706 1.772-3.269.416-.185.88-.244 1.342-.244.35 0 .696.033 1.022.078.433.057.912.135 1.461.248 3.573.723 7.132 1.95 10.015 3.446 2.629 1.361 6.09 3.667 7.652 6.941.214.447.31.92.31 1.403 0 2.025-1.667 4.213-3.269 5.166m3.468-6.81c-1.629-3.415-5.196-5.8-7.899-7.2-2.932-1.52-6.542-2.763-10.167-3.497a20.993 20.993 0 0 0-1.496-.256c-.835-.11-1.801-.169-2.666.211-1.524.67-2.089 2.387-2.109 3.774-.004.307.016.611.059.906.245 1.651 1.068 3.127 1.86 4.553l.505.9c1.221 2.188 2.185 3.916 3.497 5.265 1.569 1.612 3.591 2.591 6.766 3.275 1.125.241 2.5.477 3.93.477.768 0 1.553-.07 2.321-.24a7.591 7.591 0 0 0 2.222-.874c2.164-1.29 4.419-4.69 3.177-7.295m-42.332-8.58c-1.021-4.045-2.39-7.719-4.088-10.98h.633c1.659 3.236 2.997 6.865 4 10.841.339 1.348.65 2.745.948 4.098 1.207 5.468 2.456 11.121 6.143 15.252 4.574 5.125 11.701 7.816 20.439 7.816a48.03 48.03 0 0 0 6.282-.43c8.186-1.089 16.783-4.29 23.07-8.466v.683c-6.328 4.155-14.731 7.24-22.996 8.34a48.258 48.258 0 0 1-6.354.436c-8.904 0-16.177-2.756-20.862-8.005-3.788-4.24-5.051-9.968-6.274-15.505-.296-1.35-.603-2.742-.941-4.08m41.694 16.1c-3.261 2.163-7.415 1.984-10.327 1.45-4.108-.752-6.571-1.906-8.511-3.98-1.391-1.492-2.46-3.385-3.81-5.783-.333-.59-.683-1.213-1.057-1.859-.121-.214-.246-.428-.369-.64-.984-1.689-1.999-3.436-2.307-5.349a5.751 5.751 0 0 1-.072-1.07c.026-1.53.685-3.566 2.451-4.27.503-.203 1.035-.279 1.62-.279.458 0 .953.048 1.486.118.575.08 1.207.183 1.878.313 2.611.506 7.764 1.741 12.929 4.328 4.969 2.49 8.439 5.521 10.039 8.772.248.504.358 1.043.358 1.598 0 2.486-2.238 5.28-4.308 6.651m4.458-8.497c-1.659-3.36-5.215-6.482-10.294-9.025-5.227-2.62-10.434-3.867-13.075-4.379a33.355 33.355 0 0 0-1.909-.317c-1.13-.152-2.321-.234-3.39.194-1.666.664-2.767 2.54-2.808 4.781-.008.397.019.79.082 1.173.325 2.014 1.365 3.805 2.375 5.54.123.211.244.425.367.636.374.65.721 1.266 1.053 1.856 1.369 2.43 2.455 4.351 3.892 5.89 2.002 2.143 4.64 3.386 8.82 4.151 1.105.203 2.384.354 3.732.354 2.324 0 4.846-.452 7.011-1.89 2.703-1.792 5.648-5.903 4.144-8.964m-2.31 101.924c-.344 1.055-.958 1.978-1.61 2.953-.338.507-.686 1.03-.993 1.573-.204.36-.39.727-.554 1.09-.741 1.665-1.099 3.488-1.443 5.251a48.395 48.395 0 0 1-.583 2.686 19.841 19.841 0 0 1-.474 1.564c-.524 1.513-1.123 2.532-1.936 3.307-1.475 1.415-3.977 2.045-6.698 1.686-2.134-.282-4.09-.957-6.165-1.668-.437-.15-.872-.301-1.313-.448-.835-.278-1.724-.554-2.646-.601-.796-.04-1.565.09-2.31.213-.796.132-1.549.258-2.334.194-1.302-.106-2.423-.714-3.606-1.355-.773-.417-1.571-.847-2.432-1.137-1.234-.413-2.654-.551-4.336-.422-1.781.136-3.47.507-5.029 1.102-2.336.895-4.811 2.645-6.944 4.211l-.309.231c-1.238.911-2.408 1.774-3.595 2.064a4.327 4.327 0 0 1-1.413.11c-1.432-.135-2.898-.998-4.028-2.366-1.346-1.627-2.037-3.746-1.847-5.667.404-4.137 2.251-7.83 5.067-10.132 1.505-1.236 3.275-2.147 4.991-3.03 1.138-.586 2.313-1.189 3.421-1.892 1.795-1.137 3.446-2.265 5.048-3.356 1.686-1.153 3.278-2.239 4.973-3.299a49.615 49.615 0 0 1 4.888-2.692c2.55-1.221 4.545-1.85 6.468-2.042a27.026 27.026 0 0 1 1.87-.098c.653-.017 1.33-.034 2.009-.11.633-.07 1.289-.183 1.919-.292 1.506-.259 3.064-.529 4.458-.214 1.494.34 2.69 1.181 3.962 2.07 1.029.723 2.091 1.468 3.376 1.989 1.264.512 2.568.714 3.832.908 1.993.307 3.875.599 5.246 2.101.611.67 1.031 1.572 1.217 2.613.186 1.043.135 2.047-.147 2.905m.7-3.004c-.201-1.144-.671-2.145-1.354-2.893-1.502-1.649-3.481-1.955-5.578-2.279-1.229-.188-2.5-.385-3.704-.872-1.225-.498-2.26-1.223-3.263-1.926-1.316-.925-2.561-1.797-4.164-2.161-1.503-.339-3.118-.061-4.679.208-.62.111-1.266.22-1.884.288-.655.073-1.32.089-1.964.109-.62.017-1.264.034-1.909.099-1.989.197-4.045.843-6.655 2.095a50.286 50.286 0 0 0-4.944 2.723c-1.701 1.063-3.3 2.153-4.992 3.309-1.596 1.089-3.245 2.214-5.031 3.348-1.085.686-2.253 1.285-3.38 1.867-1.736.895-3.538 1.817-5.085 3.091-1.465 1.198-2.678 2.756-3.58 4.551-.9 1.794-1.483 3.822-1.694 5.965-.203 2.064.536 4.337 1.974 6.081 1.223 1.479 2.83 2.416 4.41 2.564.142.015.283.02.427.02.386 0 .776-.048 1.172-.143 1.297-.315 2.511-1.21 3.796-2.16l.308-.226c2.106-1.546 4.544-3.27 6.81-4.139a17.38 17.38 0 0 1 4.871-1.069c1.608-.121 2.953.008 4.119.397.812.272 1.587.691 2.34 1.097 1.183.64 2.405 1.301 3.829 1.42.852.073 1.675-.065 2.473-.2.747-.124 1.455-.242 2.187-.205.85.045 1.7.306 2.496.573.438.147.876.295 1.31.445 2.007.689 4.084 1.403 6.275 1.693 2.885.383 5.563-.304 7.161-1.834.882-.841 1.522-1.929 2.078-3.532a21.15 21.15 0 0 0 .485-1.606c.234-.892.414-1.823.592-2.72.339-1.733.69-3.521 1.406-5.127.155-.349.333-.699.526-1.046.298-.523.642-1.038.975-1.536.646-.965 1.311-1.96 1.68-3.09.307-.948.362-2.045.16-3.179M195.322 10.196c-2.626-3.415-4.408-6.784-5.378-10.196h.589c.959 3.29 2.695 6.55 5.238 9.855.614.8 1.217 1.673 1.801 2.516.854 1.24 1.736 2.515 2.681 3.601 1.226 1.412 2.131 2.636 2.855 3.853 1.877 3.142 2.914 6.75 3.921 10.241.89 3.091 1.809 6.286 3.301 9.033 1.115 2.064 2.892 3.496 5.127 4.148 2.818.82 6.122.355 9.06-1.274 2.773-1.54 5.18-3.74 7.509-5.869 1.09-.998 2.221-2.03 3.369-2.979.194-.157.379-.323.566-.489l.268-.236.216-.192c1.85-1.61 3.761-3.282 4.826-5.534.897-1.898 1.218-4.214.959-6.885-.502-5.172-2.878-9.875-6.354-12.578-1.959-1.52-2.294-4.275-2.075-7.21h.561c-.211 2.797.088 5.388 1.861 6.77 3.594 2.794 6.053 7.64 6.567 12.964.272 2.773-.07 5.19-1.008 7.177-1.116 2.364-3.072 4.071-4.964 5.721l-.22.19-.262.232c-.192.172-.383.34-.581.506-1.138.935-2.26 1.964-3.349 2.957-2.35 2.15-4.783 4.376-7.613 5.945-2.072 1.151-4.318 1.743-6.473 1.743a10.87 10.87 0 0 1-3.021-.419c-2.385-.694-4.273-2.22-5.465-4.418-1.519-2.804-2.45-6.027-3.346-9.149-.996-3.454-2.027-7.028-3.865-10.108-.705-1.187-1.595-2.385-2.797-3.772-.963-1.107-1.857-2.4-2.719-3.65a62.851 62.851 0 0 0-1.785-2.494m30.364 13.26a24.581 24.581 0 0 1-2.108 8.033 9.183 9.183 0 0 1-.273.543c-.806 1.462-2.134 2.604-3.465 2.98-.913.257-1.784.155-2.596-.3-1.984-1.123-2.759-4.185-3.256-7.032a85.854 85.854 0 0 0-.397-2.086c-.504-2.543-1.026-5.176-.759-7.602.165-1.496.878-2.726 2.058-3.552.979-.687 2.228-1.047 3.533-1.047a7.2 7.2 0 0 1 1.702.205 7.241 7.241 0 0 1 4.614 3.555c.868 1.612 1.179 3.674.947 6.303m-.45-6.57a7.824 7.824 0 0 0-4.979-3.836c-2.035-.492-4.16-.143-5.691.928-1.319.925-2.111 2.29-2.294 3.952-.277 2.514.254 5.19.767 7.773.143.72.276 1.398.394 2.076.519 2.975 1.345 6.184 3.534 7.423a3.895 3.895 0 0 0 3.025.351c.88-.25 1.66-.752 2.306-1.345a7.81 7.81 0 0 0 1.503-1.907c.101-.188.2-.385.29-.582a25.109 25.109 0 0 0 2.156-8.213c.241-2.742-.09-4.907-1.011-6.62M185.265 3.541a29.396 29.396 0 0 1-2.61-3.54h.668a29.211 29.211 0 0 0 2.367 3.174c1.396 1.623 2.966 3.142 4.486 4.61.848.821 1.724 1.668 2.562 2.523 1.784 1.825 3.094 3.411 4.126 4.997 2.943 4.523 4.516 9.9 6.041 15.101 1.105 3.774 2.249 7.675 3.898 11.15 1.392 2.952 3.752 5.036 6.819 6.028 3.856 1.246 8.583.66 12.648-1.58 3.402-1.87 6.371-4.517 9.24-7.076 1.883-1.677 3.831-3.412 5.889-4.922l.242-.18c.29-.21.584-.427.876-.638l.559-.4c2.418-1.733 4.915-3.52 6.293-6.137 1.158-2.199 1.534-5.029 1.113-8.414-.918-7.414-4.498-13.937-9.574-17.447a6.123 6.123 0 0 1-.93-.79h.825c.136.116.277.222.426.327 5.207 3.602 8.876 10.27 9.815 17.84.435 3.5.037 6.445-1.176 8.745-1.439 2.735-3.994 4.563-6.462 6.332l-.559.4c-.29.21-.581.424-.871.635l-.242.18c-2.038 1.493-3.975 3.22-5.847 4.888-2.894 2.581-5.888 5.248-9.343 7.15-2.743 1.51-5.785 2.292-8.677 2.292-1.536 0-3.03-.22-4.42-.67-3.219-1.04-5.694-3.229-7.154-6.326-1.669-3.509-2.818-7.435-3.929-11.23-1.511-5.16-3.076-10.496-5.973-14.95-1.009-1.556-2.3-3.115-4.057-4.91-.831-.85-1.704-1.698-2.551-2.513-1.527-1.48-3.108-3.007-4.518-4.649m5.079 2.885C188.64 4.348 187.247 2.21 186.167 0h.632c1.042 2.084 2.37 4.1 3.983 6.07.287.35.583.714.887 1.088 1.638 2.008 3.495 4.283 5.148 6.066 1.499 1.606 2.61 3.013 3.492 4.425 2.39 3.807 3.599 8.243 4.77 12.53.941 3.444 1.914 7.008 3.489 10.15 1.257 2.508 3.326 4.266 5.982 5.087 3.314 1.027 7.368.493 10.843-1.428 3.081-1.7 5.761-4.113 8.357-6.447 1.495-1.344 3.043-2.736 4.646-3.976a66.228 66.228 0 0 0 .979-.774l.397-.31c2.128-1.667 4.33-3.392 5.55-5.819 1.026-2.047 1.376-4.62 1.034-7.65-.704-6.297-3.683-11.908-7.963-15.01-1.31-.957-2.029-2.357-2.361-4.002h.575c.318 1.471.969 2.708 2.119 3.546 4.406 3.193 7.468 8.952 8.191 15.405.352 3.138-.016 5.82-1.091 7.961-1.277 2.543-3.529 4.307-5.707 6.011l-.395.312c-.133.101-.262.206-.389.306-.198.16-.395.316-.592.467-1.59 1.23-3.129 2.613-4.617 3.952-2.616 2.355-5.322 4.79-8.46 6.52-2.392 1.321-5.056 2.011-7.587 2.011-1.286 0-2.535-.178-3.698-.538-2.803-.866-4.99-2.725-6.318-5.372-1.601-3.192-2.582-6.784-3.529-10.254-1.159-4.249-2.356-8.643-4.705-12.38-.862-1.38-1.95-2.759-3.424-4.34-1.666-1.798-3.529-4.08-5.173-6.095-.304-.37-.6-.736-.888-1.086m38.758 20.45c-.568 1.724-1.505 3.254-2.342 4.526l-.067.1c-.11.172-.217.332-.339.482-1.003 1.225-2.558 2.983-4.481 4.094-2.287 1.314-4.758 1.1-6.304-.544-1.516-1.618-2.35-4.077-3.159-6.453-.291-.849-.589-1.729-.914-2.55a30.223 30.223 0 0 0-.932-2.116c-.186-.376-.376-.753-.564-1.133a52.57 52.57 0 0 1-.989-2.03c-1.235-2.713-1.931-5.51-2.01-8.09-.034-1.096.065-1.926.304-2.619.369-1.056 1.158-1.864 2.348-2.398 1.015-.455 2.1-.645 3.414-.844.744-.115 1.483-.129 2.249-.129.127 0 .256 0 .386.002.592 0 1.206.003 1.863-.033a88.166 88.166 0 0 1 2.326-.082c.324-.01.646-.02.955-.027 1.385-.045 2.383.036 3.329.272l.189.051.053.014c.903.25 2.487.924 2.924 2.671.172.69.172 1.592.172 2.548.003 1.592.003 3.235.764 4.36.978 1.45 1.547 3.38 1.558 5.307a14.449 14.449 0 0 1-.733 4.621m-.357-10.243c-.666-.98-.666-2.54-.668-4.045 0-.992 0-1.928-.189-2.682-.507-2.026-2.298-2.799-3.32-3.08l-.054-.014c-.069-.017-.136-.036-.203-.054-.987-.247-2.061-.338-3.481-.289l-.956.027c-.772.02-1.573.043-2.34.085-.64.034-1.246.031-1.829.031-.933-.002-1.812-.006-2.722.132-1.359.206-2.481.403-3.562.89-1.335.598-2.226 1.518-2.649 2.728-.265.756-.369 1.65-.335 2.817.082 2.652.795 5.524 2.061 8.306.318.703.662 1.388.997 2.05.189.377.378.75.561 1.125.35.72.648 1.398.917 2.076.321.81.616 1.681.904 2.525.826 2.436 1.682 4.95 3.282 6.657.982 1.046 2.294 1.58 3.703 1.58 1.074 0 2.204-.308 3.292-.933 1.001-.576 1.903-1.319 2.681-2.072.78-.754 1.44-1.525 1.956-2.155.141-.169.259-.35.376-.529l.064-.098c.857-1.299 1.815-2.872 2.407-4.658.508-1.533.773-3.19.761-4.804-.011-2.03-.614-4.078-1.654-5.616m9.92 3.9c-.328-4.212-2.175-8.147-4.94-10.529-2.097-1.805-1.513-5.749-.997-9.225.039-.265.079-.523.115-.779h-.572c-.031.231-.067.461-.102.698-.535 3.62-1.144 7.725 1.187 9.73 2.659 2.29 4.431 6.081 4.747 10.146.178 2.274-.13 4.392-.883 6.125-.915 2.101-2.55 3.732-4.143 5.321l-.186.188c-.16.166-.33.338-.502.493-.676.607-1.358 1.252-2.018 1.876-2.08 1.962-4.228 3.991-6.731 5.388-3.825 2.138-9.02 2.108-11.552-2.087-1.432-2.368-2.271-5.1-3.162-7.999-.821-2.666-1.669-5.422-3.022-7.866-.578-1.046-1.282-2.087-2.215-3.276-.429-.543-.878-1.088-1.308-1.618-.826-1.003-1.678-2.04-2.442-3.13-2.745-3.917-4.343-8.63-4.503-13.278a19.417 19.417 0 0 1-.012-.71h-.561c-.003.257.003.505.012.73.16 4.754 1.794 9.577 4.603 13.58.775 1.107 1.634 2.153 2.466 3.166.431.525.876 1.068 1.299 1.605.916 1.168 1.604 2.183 2.168 3.203 1.324 2.391 2.165 5.123 2.977 7.76.859 2.802 1.749 5.7 3.215 8.123 1.602 2.653 4.181 3.76 6.859 3.76 1.868 0 3.785-.539 5.454-1.47 2.562-1.432 4.739-3.488 6.842-5.473.656-.622 1.336-1.263 2.009-1.867.183-.166.357-.344.528-.516l.191-.193c1.618-1.618 3.292-3.288 4.25-5.488.792-1.814 1.111-4.024.928-6.389m-5.497 6.214c-.719 1.84-1.894 3.32-3.244 4.922l-.127.156c-.141.17-.27.326-.417.475l-.522.53c-1.86 1.891-3.786 3.846-6.097 5.154-2.748 1.55-6.708 1.8-8.921-1.31-1.415-1.992-2.23-4.462-3.09-7.077-.597-1.806-1.212-3.676-2.046-5.369a23.408 23.408 0 0 0-1.578-2.697c-.297-.448-.606-.892-.914-1.339-.586-.84-1.189-1.713-1.733-2.618-1.982-3.278-3.138-7.069-3.256-10.674-.048-1.508.124-2.618.542-3.493.89-1.857 2.84-2.396 3.926-2.554a12.443 12.443 0 0 1 1.775-.112c.511 0 1.03.02 1.562.04.541.02 1.102.041 1.677.041.891.003 1.729.101 2.614.21 1.144.133 2.324.274 3.655.195l.045-.003c1.444-.084 3.079-.18 4.502-.433l.699-.127c1.232-.227 2.399-.44 3.594-.413.093.003.186.008.279.014l.042.003c.807.042 3.47.393 3.812 3.034.112.861-.003 2.037-.128 3.28-.25 2.577-.537 5.496 1.01 7.08 1.821 1.864 2.996 4.75 3.146 7.716.096 1.913-.184 3.77-.807 5.37m1.37-5.397c-.155-3.103-1.393-6.123-3.307-8.084-1.364-1.395-1.09-4.176-.851-6.63.127-1.278.246-2.482.124-3.407-.228-1.773-1.418-2.776-2.773-3.229h-4.997c-.204.034-.41.073-.618.11l-.694.127c-1.389.247-2.939.337-4.437.423l-.042.003c-1.282.077-2.438-.06-3.557-.194-.862-.1-1.753-.208-2.678-.21-.57 0-1.122-.02-1.657-.043-1.19-.042-2.312-.084-3.442.08-1.195.173-3.348.776-4.352 2.864-.46.963-.649 2.156-.598 3.756.121 3.702 1.308 7.59 3.335 10.95.555.92 1.164 1.796 1.754 2.645.306.444.614.884.91 1.328.634.95 1.125 1.788 1.541 2.635.815 1.66 1.424 3.511 2.016 5.296.837 2.543 1.703 5.167 3.165 7.228 1.356 1.907 3.304 2.664 5.274 2.664 1.536 0 3.086-.459 4.383-1.19 2.383-1.347 4.336-3.33 6.225-5.25l.518-.53c.164-.162.31-.34.451-.512l.127-.15c1.381-1.644 2.585-3.159 3.334-5.08.652-1.67.944-3.61.846-5.6m19.542 108.357c2.352-1.766 5.043-3.124 7.645-4.438 2.23-1.127 4.535-2.291 6.644-3.717 4.053-2.74 7.364-6.045 10.565-9.24 1.047-1.046 2.128-2.126 3.221-3.172 2.23-2.129 4.51-3.893 6.782-5.24 3.345-1.989 6.446-2.955 9.477-2.955h.183c.959.01 1.929.123 2.864.232.99.116 2.011.236 3.04.24 1.054.014 2.167-.107 3.231-.214 2.306-.233 4.485-.453 6.439.369 1.783.748 3.056 2.16 4.404 3.656 1.392 1.544 2.83 3.142 4.893 3.969 2.039.82 4.241.688 6.375.562 2.674-.161 5.201-.312 7.116 1.423.417.374.767.827 1.042 1.341v-1.037a5.106 5.106 0 0 0-.663-.723c-2.095-1.893-4.735-1.735-7.529-1.566-2.071.123-4.211.253-6.134-.521-1.938-.782-3.335-2.329-4.684-3.825-1.328-1.474-2.703-3.001-4.6-3.797-2.088-.878-4.439-.642-6.713-.41-1.053.106-2.139.222-3.177.211-.996-.004-2.003-.121-2.972-.235-.952-.112-1.935-.227-2.924-.238-3.196-.043-6.454.953-9.958 3.037-2.306 1.367-4.621 3.156-6.881 5.316-1.099 1.05-2.181 2.132-3.23 3.178-3.182 3.178-6.474 6.463-10.484 9.172-2.077 1.407-4.367 2.562-6.584 3.681-2.621 1.327-5.336 2.697-7.728 4.491-5.234 3.927-8.438 10.469-8.564 17.497-.055 3.085 1.556 6.402 4.206 8.657 1.878 1.597 4.022 2.46 6.042 2.46.401 0 .798-.033 1.188-.103a7.32 7.32 0 0 0 2.325-.85c2.026-1.138 3.811-2.956 5.438-4.753 2.689-2.969 6.897-6.744 10.234-8.476a21.404 21.404 0 0 1 6.997-2.236c2.344-.319 4.363-.135 5.999.542 1.16.481 2.229 1.247 3.267 1.986 1.629 1.164 3.315 2.371 5.388 2.489 1.226.07 2.402-.267 3.539-.591 1.092-.312 2.134-.604 3.214-.576 1.277.036 2.524.54 3.596 1.01.912.399 1.83.832 2.713 1.251 2.557 1.204 5.2 2.45 8.038 3.074 3.421.754 8.041.456 10.762-2.641 1.482-1.684 2.103-3.867 2.512-5.777a49.1 49.1 0 0 0 .47-2.537c.143-.889.273-1.8.398-2.683.449-3.186.915-6.483 2.187-9.416.238-.551.506-1.09.797-1.606.517-.914 1.131-1.794 1.726-2.647.62-.888 1.254-1.796 1.789-2.763v-1.252c-.593 1.31-1.435 2.519-2.255 3.695-.6.863-1.222 1.755-1.751 2.692-.301.531-.576 1.09-.823 1.656-1.305 3.004-1.776 6.34-2.23 9.562-.123.881-.25 1.789-.393 2.672-.153.929-.305 1.75-.465 2.509-.398 1.84-.99 3.934-2.389 5.524-2.557 2.916-7.1 3.15-10.214 2.463-2.778-.612-5.391-1.844-7.916-3.034-.89-.419-1.809-.855-2.729-1.257-1.12-.492-2.431-1.018-3.81-1.057-1.17-.029-2.295.289-3.382.598-1.14.326-2.215.633-3.352.569-1.911-.11-3.456-1.215-5.094-2.385-1.06-.757-2.159-1.542-3.38-2.048-1.727-.715-3.844-.911-6.289-.579a21.933 21.933 0 0 0-7.178 2.292c-3.404 1.768-7.67 5.594-10.392 8.6-1.596 1.761-3.341 3.541-5.297 4.638a6.779 6.779 0 0 1-2.148.79c-2.179.386-4.646-.427-6.768-2.232-2.523-2.15-4.06-5.299-4.005-8.219.123-6.856 3.24-13.235 8.339-17.058m-6.401 2.382c2.81-2.066 5.929-3.754 8.94-5.386 2.676-1.445 5.438-2.944 8.005-4.704 5.578-3.839 9.848-8.426 14.372-13.287.521-.559 1.043-1.119 1.567-1.678 2.511-2.678 5.113-4.873 7.732-6.52 3.856-2.427 7.646-3.577 11.269-3.417 1.128.05 2.267.228 3.363.402 1.155.18 2.35.369 3.552.41 1.271.045 2.586-.061 3.859-.165 2.683-.217 5.22-.425 7.466.655 1.979.95 3.332 2.675 4.765 4.497 1.525 1.941 3.1 3.949 5.496 4.908 2.378.956 4.998.63 7.529.317.817-.1 1.623-.202 2.407-.255v-.563c-.823.054-1.654.157-2.478.259-2.457.307-5.004.622-7.247-.278-2.255-.906-3.785-2.852-5.262-4.734-1.41-1.795-2.867-3.65-4.968-4.657-2.381-1.148-5.115-.926-7.756-.71-1.255.105-2.552.209-3.792.164-1.166-.04-2.346-.225-3.479-.405-1.118-.174-2.27-.355-3.429-.407-3.735-.161-7.639 1.015-11.594 3.503-2.66 1.674-5.302 3.899-7.844 6.61-.526.562-1.046 1.122-1.568 1.681-4.501 4.835-8.755 9.403-14.284 13.206-2.538 1.746-5.286 3.234-7.948 4.673-3.031 1.643-6.163 3.339-9.008 5.426-6.325 4.641-10.235 12.679-10.21 20.982.017 4.929 3.515 9.595 8.322 11.091 1.002.316 2.024.47 3.058.47 3.507 0 7.147-1.788 10.688-5.281.727-.721 1.449-1.449 2.171-2.177 3.475-3.511 7.073-7.141 11.509-9.631l.593-.334c2.206-1.249 3.802-2.149 6.417-2.551 2.726-.419 5.062-.21 6.946.616 1.338.585 2.557 1.524 3.734 2.433 1.852 1.426 3.764 2.9 6.161 3.018 1.416.067 2.766-.363 4.071-.782 1.211-.388 2.459-.79 3.724-.765 1.489.03 2.926.652 4.159 1.231 1.109.524 2.223 1.094 3.3 1.646 2.867 1.465 5.829 2.984 9.03 3.771 3.828.943 9.413.712 12.552-3.04 1.672-1.994 2.318-4.607 2.729-6.899.164-.897.311-1.851.47-3.001.111-.844.217-1.69.32-2.539.25-2.048.507-4.132.913-6.168v-2.486c-.761 2.793-1.122 5.723-1.471 8.586-.105.846-.209 1.69-.324 2.531a67.218 67.218 0 0 1-.462 2.978c-.398 2.22-1.02 4.743-2.607 6.638-2.971 3.553-8.313 3.758-11.984 2.855-3.136-.774-6.072-2.276-8.907-3.727-1.083-.554-2.202-1.128-3.321-1.653-1.282-.605-2.785-1.252-4.383-1.285-1.361-.023-2.654.387-3.91.79-1.317.421-2.557.821-3.87.756-2.221-.11-3.979-1.465-5.844-2.9-1.205-.931-2.455-1.893-3.851-2.506-1.986-.869-4.427-1.088-7.259-.655-2.717.419-4.438 1.39-6.611 2.619l-.591.331c-4.509 2.529-8.129 6.188-11.635 9.726a221.88 221.88 0 0 1-2.167 2.172c-4.486 4.432-8.923 6.004-13.182 4.679-4.576-1.428-7.907-5.869-7.924-10.56-.025-8.126 3.797-15.99 9.981-20.524m82.571-59.608c2.488-.388 5.195-.388 7.751-.322v-.564c-2.579-.064-5.31-.064-7.839.332a1.25 1.25 0 0 0-1.074 1.173 1.26 1.26 0 0 0 .92 1.319c2.145.636 4.447.606 6.677.578.327-.007.651-.01.972-.013H338v-.563h-.346c-.325.003-.649.006-.976.012-2.191.028-4.448.056-6.511-.552a.71.71 0 0 1-.519-.745c.02-.271.186-.59.601-.654m1.056 47.199c-.463 1.272-1.226 2.379-2.029 3.555-.47.683-.956 1.392-1.373 2.133-.254.447-.484.908-.688 1.375-1.017 2.32-1.438 4.878-1.846 7.354a86.867 86.867 0 0 1-.48 2.733 33.913 33.913 0 0 1-.469 2.034c-.389 1.463-.951 3.13-2.164 4.416-2.143 2.284-5.771 2.57-8.449 2.072-2.436-.449-4.747-1.414-6.984-2.348-.678-.284-1.381-.577-2.079-.855-1.003-.397-2.081-.787-3.231-.829-.986-.04-1.932.188-2.852.404-.966.23-1.88.447-2.836.383-1.606-.11-2.94-.965-4.348-1.867-.918-.588-1.866-1.199-2.907-1.595-1.475-.56-3.265-.729-5.317-.501a19.622 19.622 0 0 0-6.105 1.699c-2.452 1.136-5.112 3.068-8.139 5.908-.199.187-.396.375-.594.563-1.304 1.243-2.536 2.416-3.925 3.013a5.484 5.484 0 0 1-1.779.444c-2.053.146-4.375-.835-6.21-2.627-1.839-1.792-2.83-4.062-2.722-6.224.267-5.468 2.773-10.55 6.703-13.593 1.898-1.476 4.117-2.547 6.259-3.585 1.735-.839 3.524-1.708 5.168-2.79 2.979-1.963 5.514-4.203 7.962-6.372 1.254-1.107 2.549-2.252 3.869-3.329 1.943-1.578 3.905-2.911 5.834-3.963 2.926-1.603 5.56-2.419 8.059-2.497.154-.006.31-.008.464-.008.64 0 1.28.039 1.9.075.823.049 1.669.098 2.525.065.857-.037 1.741-.149 2.594-.259 1.85-.239 3.761-.484 5.43.081 1.606.546 2.815 1.66 4.098 2.838 1.24 1.14 2.52 2.318 4.223 3.004 1.677.678 3.452.726 5.17.777 2.307.064 4.486.127 6.116 1.72.781.763 1.287 1.837 1.475 3.106.176 1.203.064 2.441-.323 3.49m.881-3.572c-.205-1.392-.771-2.576-1.638-3.422-1.786-1.753-4.075-1.817-6.498-1.885-1.667-.048-3.387-.096-4.972-.734-1.608-.65-2.85-1.791-4.051-2.897-1.268-1.167-2.581-2.374-4.301-2.956-1.794-.61-3.77-.354-5.682-.106-.842.106-1.712.219-2.547.253-.821.033-1.659-.017-2.467-.066-.786-.045-1.6-.095-2.415-.066-2.586.081-5.307.919-8.312 2.567-1.956 1.066-3.947 2.419-5.916 4.019-1.33 1.086-2.633 2.236-3.887 3.347-2.439 2.152-4.957 4.379-7.903 6.323-1.611 1.06-3.387 1.921-5.1 2.75-2.172 1.049-4.415 2.138-6.364 3.648-4.055 3.144-6.643 8.381-6.918 14.009-.113 2.326.94 4.75 2.891 6.654 1.819 1.775 4.107 2.801 6.204 2.801.148 0 .294-.002.44-.014a6.043 6.043 0 0 0 1.962-.492c1.483-.636 2.811-1.898 4.092-3.119.198-.188.396-.377.593-.562 2.979-2.796 5.592-4.698 7.989-5.805a19.06 19.06 0 0 1 5.93-1.652c1.964-.218 3.664-.061 5.055.467.985.377 1.907.968 2.798 1.542 1.409.903 2.866 1.839 4.617 1.957 1.042.071 2.042-.169 3.008-.396.92-.217 1.79-.425 2.697-.391 1.063.039 2.085.413 3.044.79.695.276 1.397.569 2.073.85 2.263.944 4.599 1.924 7.094 2.385 2.828.523 6.667.208 8.968-2.243 1.304-1.382 1.912-3.213 2.294-4.654.171-.643.326-1.319.479-2.07.18-.908.334-1.848.484-2.753.4-2.442.815-4.964 1.804-7.22.198-.449.421-.894.663-1.324.406-.717.884-1.415 1.346-2.09.79-1.15 1.604-2.34 2.095-3.679.417-1.135.538-2.471.351-3.766m-15.572-90.445c-1.683.838-3.762.258-5.599-.254l-.201-.055c-2.078-.577-3.412-1.252-4.461-2.256-1.008-.968-1.773-2.23-2.674-3.952-.525-.998-1.049-2.067-1.196-3.23a4.559 4.559 0 0 1-.031-.563c.01-1.072.42-1.919 1.099-2.27.317-.164.674-.212 1.015-.212.211 0 .416.017.605.042.297.038.628.094 1.032.184 2.67.582 5.129 1.468 7.107 2.562 1.793.984 4.16 2.671 5.266 5.11.745 1.642-.212 4.022-1.962 4.894m2.475-5.125c-1.169-2.582-3.639-4.345-5.506-5.372-2.026-1.119-4.538-2.024-7.259-2.62a13.14 13.14 0 0 0-1.087-.192c-.563-.068-1.293-.107-1.944.231-.868.448-1.397 1.48-1.404 2.762-.002.213.007.43.037.64.154 1.256.704 2.378 1.252 3.421.928 1.772 1.72 3.074 2.787 4.095 1.119 1.074 2.523 1.788 4.696 2.393l.203.056c1.206.336 2.508.698 3.778.698.763 0 1.516-.132 2.226-.484 2.036-1.015 3.094-3.698 2.221-5.628m-4.293 3.53c-.199.43-.532.728-.988.878-.845.284-1.861-.276-2.762-.765a12.851 12.851 0 0 0-.767-.402c-.856-.4-1.744-.816-2.473-1.415a5.614 5.614 0 0 1-2.034-4.26c-.004-.437.07-1.014.443-1.283.178-.127.393-.175.63-.175.263 0 .55.06.833.13 1.757.444 3.087.975 4.19 1.676a8.327 8.327 0 0 1 1.557 1.262 6.358 6.358 0 0 1 1.328 2.02c.319.787.336 1.705.043 2.334m.48-2.545c-.704-1.752-2.077-2.895-3.105-3.547-1.156-.73-2.539-1.285-4.354-1.746-.639-.16-1.371-.27-1.93.135-.458.33-.687.917-.681 1.741a6.196 6.196 0 0 0 2.241 4.691c.787.647 1.706 1.077 2.594 1.491.227.106.474.242.736.385.794.433 1.67.914 2.539.914.226 0 .447-.03.671-.107a2.178 2.178 0 0 0 1.322-1.176c.428-.928.266-2.044-.033-2.78M2.478 0C1.965 1.287 1.228 2.565.141 3.575c-.045.042-.093.087-.14.128v-.78C.83 2.072 1.428 1.048 1.868 0h.609ZM0 28.67c2.103-.348 4.26-1.11 6.215-2.539 2.267-1.66 3.93-3.91 5.438-6.075.77-1.097 1.5-2.175 2.205-3.218l.307-.455c3.405-5 5.46-9.239 7.092-14.625A19.8 19.8 0 0 0 21.702 0h.575a20.26 20.26 0 0 1-.479 1.92c-1.652 5.446-3.729 9.727-7.166 14.781l-.306.452a209.618 209.618 0 0 1-2.21 3.226c-1.534 2.202-3.23 4.494-5.568 6.207C4.482 28.094 2.211 28.887 0 29.242v-.572Zm209.932 107.031c-.098.523-.857 1.376-1.525 2.127-.75.84-1.458 1.636-1.61 2.275-.132.567-.202 1.149-.27 1.712-.048.391-.098.796-.166 1.187-.201 1.114-.558 1.924-1.094 2.481-1.979 2.045-5.993-.326-8.149-1.601l-.251-.146-.203-.12c-.313-.184-.623-.367-.936-.546a68.33 68.33 0 0 0-2.548-1.378c-1.291-.675-2.627-1.376-3.876-2.186-2.584-1.56-5.592-4.177-5.256-7.731.255-1.409.87-2.41 1.879-3.055 2.692-1.716 7.566-.453 11.126.47.784.202 1.525.396 2.151.531.381.082.826.169 1.313.262 3.783.731 10.112 1.958 9.415 5.718m-9.308-6.269c-.482-.096-.921-.18-1.302-.262-.615-.132-1.347-.323-2.128-.526-3.658-.947-8.671-2.25-11.571-.397-1.134.724-1.849 1.876-2.131 3.452-.37 3.87 2.796 6.643 5.511 8.283 1.265.821 2.613 1.527 3.915 2.208.834.438 1.696.888 2.528 1.366.313.18.62.36.931.543l.453.268c1.613.953 4.198 2.48 6.388 2.48.921 0 1.776-.273 2.455-.974.617-.64 1.023-1.546 1.243-2.772.071-.405.122-.818.169-1.218.068-.546.135-1.114.262-1.651.118-.501.812-1.279 1.48-2.03.789-.884 1.534-1.719 1.658-2.4.8-4.308-5.875-5.599-9.861-6.37M0 13.642c1.412-.322 2.742-.943 3.873-1.962 2.37-2.135 3.21-5.492 3.633-7.833C7.738 2.578 7.902 1.293 8 0h.57a38.979 38.979 0 0 1-.508 3.95c-.44 2.418-1.314 5.896-3.811 8.15C3.01 13.214 1.548 13.884 0 14.21v-.57Zm338 32.216a25.476 25.476 0 0 1-5.011 1.656c-8.888 1.95-12.79 2.895-20.874 5.057-5.46 1.46-11.909 1.471-19.165.034-2.514-.498-5-1.179-7.39-2.023a23.802 23.802 0 0 1-1.094-.423c-1.49-.606-3.033-1.233-4.477-.628-1.211.508-1.831 1.73-2.488 3.02-.276.546-.563 1.111-.901 1.62-1.701 2.568-4.503 3.187-7.211 3.786-.688.152-1.402.31-2.075.498-3.085.852-5.215 2.086-6.514 3.777-.893 1.16-1.359 2.441-1.811 3.678-.588 1.624-1.197 3.3-2.762 4.69-.235.206-.465.413-.702.624-1.547 1.395-3.304 2.977-5.69 4.188-5.013 2.525-10.325 2.56-15.949 2.595-4.017.026-8.169.051-12.183 1.08-1.829.465-3.67 1.157-5.452 1.825-1.939.732-3.946 1.486-6.001 1.975a25.73 25.73 0 0 1-5.93.684c-5.257 0-10.556-1.552-14.929-4.48a27.74 27.74 0 0 1-6.356-5.903c-2.748-3.48-4.64-7.45-6.339-11.223l-.914-2.037c-2.038-4.566-4.144-9.289-7.086-13.466-2.571-3.65-5.725-6.82-8.775-9.882-1.342-1.35-2.731-2.749-4.059-4.17a75.868 75.868 0 0 1-2.977-3.379c-1.161-1.41-2.283-2.889-3.369-4.32-1.744-2.299-3.545-4.676-5.541-6.779-1.713-1.81-3.481-3.347-5.404-4.693-2.959-2.079-6.378-3.745-9.682-5.356-4.55-2.219-9.209-4.494-12.698-7.883h.794c3.312 3.066 7.648 5.18 12.152 7.377 3.323 1.623 6.762 3.3 9.762 5.4a35.896 35.896 0 0 1 5.485 4.767c2.019 2.13 3.828 4.517 5.581 6.83 1.083 1.425 2.202 2.9 3.354 4.296a73.777 73.777 0 0 0 2.957 3.356c1.319 1.418 2.706 2.81 4.045 4.157 3.067 3.08 6.239 6.266 8.838 9.956 2.973 4.222 5.09 8.97 7.139 13.56.305.676.606 1.358.91 2.036 1.689 3.737 3.561 7.675 6.27 11.103 1.801 2.284 3.895 4.23 6.227 5.786 5.911 3.957 13.541 5.344 20.413 3.715 2.021-.48 4.011-1.228 5.934-1.951 1.796-.677 3.653-1.374 5.513-1.847 4.079-1.042 8.267-1.07 12.318-1.096 5.557-.035 10.802-.07 15.696-2.534 2.32-1.177 3.974-2.666 5.569-4.103.236-.214.47-.425.704-.63 1.457-1.295 2.016-2.83 2.607-4.459.465-1.279.945-2.6 1.891-3.83 1.38-1.789 3.61-3.09 6.814-3.977.688-.19 1.408-.349 2.104-.503 2.717-.602 5.287-1.167 6.86-3.547.32-.48.601-1.032.87-1.567.675-1.324 1.371-2.694 2.772-3.282 1.661-.694 3.385.006 4.907.624.372.152.725.293 1.068.417 2.37.832 4.83 1.505 7.316 2 7.17 1.42 13.532 1.411 18.911-.026 8.092-2.165 12-3.114 20.896-5.063A24.89 24.89 0 0 0 338 45.242v.616Zm0-7.79a34.466 34.466 0 0 1-4.033 2.811c-3.384 2.02-7.865 3.48-12.299 4.006-3.517.418-6.841.371-10.053.322-5.143-.075-10-.145-14.84 1.734-5.085 1.971-8.129.553-11.656-1.086-1.905-.886-4.064-1.89-6.804-2.458-1.742-.36-3.786 1.544-5.761 3.388-1.739 1.624-3.539 3.3-5.232 3.508-2.277.282-3.965.821-5.477 1.755-4.072 2.53-5.262 6.11-6.522 9.903-.542 1.626-1.101 3.304-1.903 4.944-1.238 2.531-2.541 4.52-4.862 6.011-4.505 2.874-9.573 1.98-14.94 1.032-3.794-.666-7.721-1.358-11.475-.624-1.993.383-3.941 1.195-5.824 1.98-1.558.65-3.168 1.32-4.826 1.766-1.682.45-3.436.67-5.215.67-4.859 0-9.896-1.65-14.189-4.75-2.123-1.53-4.104-3.424-5.894-5.624-2.56-3.144-4.53-6.634-6.492-10.232l-.995-1.833c-2.238-4.129-4.555-8.4-7.266-12.367-2.372-3.465-5.055-6.719-7.648-9.866-1.136-1.378-2.312-2.804-3.447-4.23a175.514 175.514 0 0 1-2.59-3.335c-.373-.487-.739-.977-1.106-1.466-2.28-3.029-4.637-6.159-7.422-8.755a35.42 35.42 0 0 0-5.35-4.092c-2.624-1.648-5.533-3.047-8.346-4.396-4.081-1.957-8.25-3.96-11.608-6.784h.857c3.149 2.511 7.005 4.362 10.993 6.278 2.83 1.355 5.754 2.76 8.404 4.424a36.383 36.383 0 0 1 5.434 4.156c2.824 2.633 5.194 5.783 7.49 8.832.365.49.733.975 1.101 1.462a184.114 184.114 0 0 0 2.585 3.327c1.134 1.424 2.307 2.847 3.439 4.222 2.602 3.155 5.294 6.42 7.679 9.91 2.729 3.986 5.051 8.27 7.297 12.413.333.61.663 1.22.996 1.831 1.948 3.574 3.904 7.04 6.435 10.147 1.756 2.162 3.701 4.02 5.784 5.521 5.727 4.14 12.803 5.632 18.928 3.995 1.621-.438 3.214-1.1 4.755-1.745 1.909-.795 3.882-1.617 5.931-2.014 3.861-.754 7.836-.054 11.684.624 5.254.93 10.218 1.803 14.536-.95 2.214-1.42 3.464-3.339 4.658-5.785.787-1.607 1.34-3.269 1.876-4.874 1.293-3.893 2.514-7.567 6.762-10.204 1.581-.979 3.341-1.544 5.703-1.833 1.513-.187 3.244-1.8 4.915-3.362 2.083-1.94 4.234-3.95 6.261-3.529 2.807.58 4.998 1.6 6.928 2.497 3.553 1.653 6.354 2.956 11.214 1.071 4.943-1.918 9.855-1.844 15.055-1.769 3.193.05 6.496.096 9.976-.317 4.359-.52 8.757-1.953 12.075-3.932A34.374 34.374 0 0 0 338 37.338v.73ZM0 21.113c1.756-.299 3.51-.959 5.043-2.208 2.291-1.865 3.578-4.562 4.53-6.953a52.601 52.601 0 0 0 1.545-4.424c.778-2.579 1.178-5.06 1.34-7.529h.565a33.871 33.871 0 0 1-1.366 7.692 52.467 52.467 0 0 1-1.56 4.468c-.98 2.46-2.308 5.235-4.696 7.181-1.65 1.342-3.529 2.04-5.4 2.343v-.57Zm87.033 59.28c-.293.462-.986.538-1.488.347-.584-.228-1.035-.748-1.401-1.228-1.404-1.85-2.346-4.046-3.256-6.166-.8-1.866-1.63-3.797-2.773-5.519-1.774-2.66-4.262-4.76-6.667-6.79-2.325-1.967-4.73-3.995-6.451-6.512-.542-.793-.892-2.14-.514-2.627.254-.329.86-.197 1.322-.028.617.222 1.105.725 1.553 1.22 1.117 1.237 2.145 2.6 3.138 3.912.977 1.294 1.987 2.63 3.09 3.865 1.422 1.59 3.029 3.038 4.582 4.438 1.348 1.215 2.74 2.47 3.997 3.806 3.248 3.446 4.947 6.897 5.048 10.252.011.367-.003.748-.18 1.03m.744-1.047c-.107-3.5-1.858-7.07-5.2-10.62-1.274-1.354-2.675-2.616-4.031-3.84-1.542-1.39-3.138-2.829-4.538-4.396-1.089-1.215-2.092-2.542-3.062-3.825-1-1.325-2.035-2.694-3.17-3.952-.472-.522-1.038-1.104-1.78-1.372-1.155-.419-1.703-.115-1.959.214-.197.25-.278.591-.278.962 0 .79.363 1.732.772 2.326 1.764 2.578 4.2 4.635 6.55 6.62 2.377 2.008 4.835 4.081 6.562 6.677 1.12 1.68 1.937 3.584 2.726 5.426.925 2.155 1.881 4.383 3.326 6.286.413.543.93 1.137 1.647 1.412.225.09.484.138.747.138.546 0 1.105-.212 1.42-.709.26-.41.282-.889.268-1.347M68.92 57.124c-.032.017-.08.03-.128-.016a35.894 35.894 0 0 1-2.804-3.055c-.065-.078-.135-.154-.202-.233-.142-.158-.275-.307-.37-.467a1.388 1.388 0 0 1-.079-.169c-.05-.138-.045-.3.011-.39.023-.034.054-.068.135-.074.31-.025.606.271.88.591l1.474 1.735c.462.54 1.006 1.251 1.144 1.95a.115.115 0 0 1-.06.128m.613-.236c-.16-.82-.73-1.575-1.266-2.205l-1.474-1.735c-.372-.436-.797-.835-1.356-.79a.724.724 0 0 0-.567.335c-.15.242-.177.58-.064.885a1.6 1.6 0 0 0 .121.256c.125.211.282.388.434.56.065.073.13.143.19.216a37.056 37.056 0 0 0 2.85 3.102c.129.124.295.191.461.191.11 0 .22-.027.325-.084a.68.68 0 0 0 .346-.73M0 44.371c4.01-1.02 7.676-3.234 11.51-5.542 2.825-1.703 5.745-3.462 8.808-4.689 2.168-.866 4.496-1.505 6.746-2.118 4.487-1.226 9.124-2.495 12.5-5.65 5.855-5.47 5.736-14.839 3.15-21.232-.728-1.8-1.633-3.507-2.658-5.14h.662a32.787 32.787 0 0 1 2.52 4.93c2.745 6.783 2.793 16.171-3.287 21.853-3.479 3.251-8.186 4.536-12.737 5.782-2.237.61-4.548 1.24-6.687 2.098-3.019 1.21-5.92 2.955-8.724 4.65C8.05 41.574 4.2 43.894 0 44.943v-.572Zm0-7.967a21.26 21.26 0 0 0 7.385-3.046c2.02-1.32 3.795-2.903 5.511-4.433.285-.256.57-.509.852-.759.952-.839 2.21-1.929 3.49-2.917 1.327-1.02 2.65-1.949 3.929-2.845 3.492-2.45 6.793-4.765 9.242-8.354 2.602-3.81 3.397-9.022 2.292-14.05h.575c1.1 5.14.265 10.461-2.399 14.365-2.509 3.676-5.849 6.02-9.386 8.5-1.274.894-2.594 1.816-3.907 2.83-1.268.978-2.517 2.06-3.462 2.893-.281.25-.567.503-.851.757-1.73 1.543-3.52 3.141-5.575 4.482A21.836 21.836 0 0 1 0 36.976v-.57Zm203.378 107.959a2.12 2.12 0 0 1-1.138.309c-.976 0-2.044-.538-2.94-1.066a34.713 34.713 0 0 0-1.387-.745c-3.138-1.643-10.483-5.493-10.63-8.306-.031-.613.299-1.142 1.012-1.611.68-.453 1.55-.534 2.412-.534a24.712 24.712 0 0 1 10.882 2.604c.724.362 1.296.706 1.739 1.189.961 1.055 1.116 2.616 1.203 4.258.073 1.435.011 3.176-1.153 3.902m1.714-3.93c-.09-1.749-.262-3.414-1.347-4.606-.53-.583-1.229-.976-1.903-1.317a25.245 25.245 0 0 0-10.914-2.66c-1.015-.012-2.08.05-2.946.624-.88.582-1.302 1.294-1.26 2.109.161 3.133 7.434 6.945 10.929 8.776.612.32 1.093.573 1.361.73.97.574 2.128 1.151 3.233 1.151a2.69 2.69 0 0 0 1.433-.4c1.412-.883 1.499-2.82 1.414-4.407M85.624 78.56c-.076.061-.203.072-.319.03-.262-.099-.422-.355-.603-.683l-.555-.99c-1.184-2.096-2.526-4.475-3.084-6.73a.19.19 0 0 1 .064-.194.198.198 0 0 1 .21-.031c.393.167.764.486 1.191 1.026a15.498 15.498 0 0 1 3.161 7.102c.047.284.03.397-.065.47m.62-.564a16.075 16.075 0 0 0-3.273-7.356c-.33-.418-.79-.93-1.412-1.196a.754.754 0 0 0-.794.121.748.748 0 0 0-.249.756c.575 2.332 1.936 4.746 3.137 6.874.192.336.378.664.556.985.177.32.42.758.901.936a.94.94 0 0 0 .337.061.842.842 0 0 0 .523-.174c.39-.302.316-.758.274-1.007m-43.695-43.39c-.075 1.486-.169 3-.281 4.493-.18 2.416-.49 4.922-2.083 6.705-1.71 1.918-4.338 2.42-6.875 2.9-.31.06-.614.115-.919.177-4.823.962-9.37 2.92-13.144 5.658-2.283 1.658-4.372 3.655-6.39 5.583-2.737 2.617-5.565 5.322-8.919 7.226A23.321 23.321 0 0 1 0 69.12v-.598A22.769 22.769 0 0 0 3.66 66.86c3.293-1.868 6.097-4.548 8.809-7.142 2.033-1.943 4.135-3.954 6.446-5.63 3.843-2.787 8.466-4.778 13.367-5.757.305-.062.612-.12.922-.177 2.447-.467 4.978-.946 6.562-2.723 1.474-1.65 1.768-4.053 1.942-6.373.11-1.488.206-2.995.28-4.48.041-.84.05-1.583-.277-2.2-.505-.945-1.709-1.307-2.669-1.249-1.114.068-2.19.583-3.144 1.038A929.504 929.504 0 0 0 9.25 45.408C6.286 46.941 3.244 48.512 0 49.202v-.577c3.132-.689 6.097-2.222 8.99-3.715a924.09 924.09 0 0 1 26.665-13.252c.999-.476 2.128-1.016 3.349-1.092 1.147-.07 2.582.38 3.202 1.547.394.743.388 1.567.343 2.492m216.816 65.471-5.933 6.887c-1.448 1.679-3.082 3.577-5.244 4.511-1.922.827-4.299.858-6.519.079-2.422-.85-5.221-3.128-5.032-4.573.111-.835 1.251-1.361 3.301-1.519.307-.025.617-.048.926-.07 3.101-.228 6.313-.464 9.106-1.904.955-.492 1.874-1.128 2.765-1.742 1.964-1.358 3.819-2.64 6.033-2.513.311.019.624.14.755.3.051.062.07.122.058.192-.013.115-.127.247-.216.352m.594-.901c-.282-.34-.799-.483-1.162-.504-2.395-.136-4.424 1.26-6.384 2.611-.873.604-1.778 1.229-2.703 1.704-2.691 1.386-5.842 1.62-8.889 1.845l-.928.068c-2.379.185-3.664.86-3.813 2.008a1.65 1.65 0 0 0-.014.211c0 1.878 3.133 4.165 5.418 4.966a10.43 10.43 0 0 0 3.444.594c1.228 0 2.42-.23 3.485-.689 2.278-.982 3.961-2.937 5.444-4.658l5.934-6.887c.131-.152.313-.363.352-.644a.801.801 0 0 0-.184-.625M338 64.62v.566l-.774-.102c-7.603-.996-15.469-2.025-22.338.725-4.544 1.82-8.285 5.188-11.908 8.442-2.794 2.51-5.682 5.108-8.959 7.031-7.698 4.517-16.845 5.026-25.69 5.518-5.005.28-10.185.569-15.075 1.575-9.246 1.899-17.777 6.435-26.028 10.82-4.09 2.174-8.321 4.422-12.6 6.331-4.625 2.064-13.513 5.378-22.88 5.378-6.1.002-12.402-1.405-17.865-5.471-6.834-5.088-10.47-13.092-13.984-20.83-3.253-7.157-6.613-14.557-12.496-19.656-3.884-3.367-8.913-5.044-13.775-6.666-.837-.282-1.673-.56-2.495-.844-7.479-2.59-12.891-5.586-17.025-9.422-2.904-2.694-4.775-5.85-5.562-9.383-.321-1.436-.493-2.919-.662-4.353-.314-2.65-.634-5.389-1.898-7.845-1.156-2.246-2.708-4.3-4.208-6.285-1.524-2.014-3.1-4.098-4.279-6.405C95.34 9.524 94.48 4.688 93.666 0h.572c.804 4.616 1.657 9.371 3.763 13.49 1.156 2.26 2.717 4.325 4.225 6.321 1.517 2.003 3.084 4.075 4.262 6.367 1.311 2.546 1.638 5.336 1.954 8.033.169 1.42.341 2.89.654 4.3.761 3.417 2.576 6.478 5.395 9.091 4.079 3.782 9.426 6.738 16.828 9.303.82.285 1.652.562 2.486.841 4.916 1.64 10.001 3.335 13.967 6.776 5.976 5.18 9.364 12.637 12.64 19.847 3.486 7.676 7.091 15.61 13.809 20.614 13.614 10.137 32.633 3.397 40.175.031 4.263-1.901 8.485-4.145 12.567-6.317 8.287-4.402 16.854-8.957 26.178-10.874 4.935-1.014 10.134-1.304 15.159-1.582 8.778-.49 17.857-.996 25.438-5.447 3.224-1.891 6.091-4.468 8.866-6.963 3.656-3.285 7.439-6.686 12.077-8.541 7.004-2.807 14.942-1.77 22.617-.763l.702.093m-113.185 57.039c-.254.27-.507.534-.755.797-1.934 2.035-3.758 3.955-5.254 6.538-1.534 2.64-2.244 4.609-2.935 6.51-.268.742-.521 1.443-.82 2.174-.552 1.358-1.012 2.762-1.457 4.12-.59 1.786-1.196 3.637-2.008 5.341-.957 2.017-2.15 3.33-3.641 4.02-1.906.877-4.194.477-5.782-.012-2.53-.781-4.761-2.238-7.119-3.782-.917-.6-1.861-1.218-2.819-1.787-1.788-1.066-3.705-1.991-5.56-2.888-.746-.361-1.493-.723-2.243-1.097a27.86 27.86 0 0 1-4.874-2.802 28.468 28.468 0 0 1-4.18-3.667c-2.706-2.761-4.414-6.058-5.858-9.208-.974-2.359-1.88-5.647-.648-7.945a8.48 8.48 0 0 1 8.042-2.911c12.326 2.214 25.671 4.078 39.703 2.748.603-.012 1.432-.09 2.393-.183 1.72-.166 3.862-.372 5.448-.216 1.232.118 1.951.436 2.14.939.178.464.011 1.417-1.773 3.311m2.303-3.511c-.276-.731-1.132-1.155-2.616-1.299-1.64-.16-3.814.048-5.559.217-.946.093-1.764.172-2.364.179-13.99 1.325-27.287-.531-39.573-2.736a9.042 9.042 0 0 0-8.598 3.127l-.031.045c-1.353 2.495-.414 5.975.614 8.455l.006.008c1.463 3.198 3.2 6.548 5.965 9.371a29.225 29.225 0 0 0 4.256 3.735 28.759 28.759 0 0 0 4.962 2.852c.741.371 1.491.731 2.238 1.095 1.844.891 3.751 1.81 5.519 2.865a76.179 76.179 0 0 1 2.796 1.775c2.289 1.496 4.656 3.043 7.264 3.847.947.293 2.139.555 3.369.555.946 0 1.916-.156 2.815-.572 1.616-.745 2.898-2.148 3.916-4.289.826-1.735 1.44-3.599 2.032-5.405.443-1.348.899-2.742 1.446-4.084.302-.742.558-1.445.826-2.193.682-1.879 1.384-3.823 2.892-6.421 1.463-2.524 3.267-4.422 5.175-6.432.251-.262.502-.529.755-.799 1.616-1.713 2.236-2.987 1.895-3.896m-9.505 6.57c-1.677 4.067-3.002 8.359-4.284 12.51l-.121.392c-1.095 3.532-2.186 6.412-3.961 8.976-.911 1.316-2.153 2.178-3.696 2.56-1.342.332-3.046.137-5.067-.582-1.96-.695-3.795-1.823-5.737-3.018-.758-.467-1.545-.953-2.339-1.406-1.323-.763-2.726-1.457-4.082-2.126-.727-.363-1.482-.735-2.231-1.12a21.074 21.074 0 0 1-7.105-5.054c-2.013-2.186-3.473-4.717-4.228-7.318l-.003-.006c-.806-2.579-.713-4.865.256-6.432 1.365-2.093 3.784-2.827 5.94-2.827.414 0 .82.029 1.207.08 3.035.247 5.972.697 8.814 1.133 5.567.851 10.824 1.66 16.377.962 3.236-.186 5.956-.192 8.716.38.789.163 1.344.511 1.609 1.006.262.496.24 1.148-.065 1.89m.564-2.154c-.348-.65-1.035-1.097-1.993-1.293-2.821-.586-5.584-.577-8.882-.389-5.494.69-10.714-.113-16.239-.959-2.852-.435-5.802-.888-8.842-1.137-2.549-.328-5.909.288-7.682 3.007-1.059 1.71-1.172 4.16-.318 6.897.777 2.685 2.283 5.293 4.352 7.543a21.603 21.603 0 0 0 7.281 5.178c.735.379 1.491.753 2.221 1.116 1.35.667 2.745 1.355 4.05 2.109.788.45 1.571.934 2.326 1.398 1.968 1.212 3.829 2.354 5.843 3.071 1.444.513 2.743.771 3.882.771.541 0 1.046-.059 1.51-.174a6.826 6.826 0 0 0 4.023-2.785c1.818-2.624 2.929-5.548 4.036-9.132l.122-.391c1.276-4.14 2.601-8.421 4.268-12.462.371-.899.385-1.722.042-2.368m34.285-17.061-4.243 2.883c-.517.352-1.042.709-1.592 1.022-.549.311-1.123.579-1.729.748-1.07.297-3.985.1-5.152-.952-.386-.342-.532-.739-.454-1.211.132-.79 1.533-.946 2.994-.946.515 0 1.038.02 1.513.036.987.037 1.839.069 2.349-.055 1.155-.279 2.224-.867 3.252-1.438 1.354-.748 2.633-1.456 4.059-1.487.127.599-.798 1.266-.997 1.4m1.443-1.814-.08-.146-.167-.003c-1.656-.028-3.117.777-4.531 1.558-.998.552-2.03 1.122-3.112 1.384-.435.104-1.291.073-2.196.039-2.148-.078-4.819-.177-5.083 1.379-.112.658.108 1.254.632 1.723.961.865 2.887 1.216 4.33 1.216.544 0 1.02-.051 1.353-.14 1.3-.364 2.413-1.118 3.487-1.849l4.242-2.883c1.077-.731 1.497-1.583 1.125-2.278m-21.401 16.743c-.834.476-1.704.923-2.548 1.355-1.772.91-3.605 1.851-5.203 3.109-2.952 2.319-5.251 5.79-7.036 10.608-.786 2.129-1.42 4.342-2.032 6.483-.536 1.876-1.09 3.813-1.745 5.681-.716 2.039-1.702 4.286-3.586 5.493-2.237 1.431-5.039.964-6.508.56-3.106-.858-5.852-2.731-8.507-4.543-1.071-.731-2.179-1.487-3.298-2.171-2.227-1.355-4.632-2.498-6.957-3.602a209.49 209.49 0 0 1-2.327-1.118 43.447 43.447 0 0 1-5.37-3.206 44.553 44.553 0 0 1-5.061-4.091c-3.34-3.134-10.998-11.526-10.065-21.772 1.24-2.531 4.76-3.01 7.511-2.971 4.897-.126 9.435 1.143 14.241 2.487 2.225.622 4.527 1.265 6.853 1.752 6.201 1.21 12.293.138 18.186-.9 1.939-.341 3.944-.694 5.937-.965 3.213-.446 5.987-.646 8.479-.604 3.083.051 5.789.456 8.276 1.24 1.091.344 3.638 1.362 3.755 3.384.078 1.339-.931 2.615-2.995 3.791m3.558-3.822c-.139-2.37-2.946-3.51-4.147-3.89-2.54-.802-5.299-1.215-8.436-1.266-2.526-.042-5.325.159-8.567.611-2.004.272-4.013.624-5.958.968-6.112 1.074-11.881 2.091-17.978.902-2.304-.481-4.595-1.122-6.81-1.743-4.635-1.294-9.426-2.636-14.396-2.507-4.192-.059-6.971 1.089-8.04 3.336l-.022.045-.003.051c-.986 10.515 6.83 19.086 10.235 22.283a45.537 45.537 0 0 0 5.122 4.145 44.401 44.401 0 0 0 5.443 3.246c.775.38 1.556.751 2.338 1.122 2.31 1.097 4.704 2.234 6.905 3.575 1.105.675 2.207 1.426 3.273 2.154 2.692 1.837 5.476 3.738 8.675 4.621.754.208 1.836.428 3.025.428 1.28 0 2.684-.256 3.938-1.058 2.03-1.296 3.066-3.65 3.813-5.779.66-1.885 1.215-3.831 1.754-5.712.612-2.133 1.241-4.335 2.021-6.441 1.745-4.719 3.989-8.112 6.853-10.364 1.555-1.223 3.365-2.152 5.113-3.049.848-.435 1.728-.886 2.571-1.367 2.266-1.291 3.368-2.742 3.278-4.311m99.951-57.157 1.987.08v.56c-.671-.026-1.342-.052-2.011-.08-13.887-.56-27.003-1.086-38.586 13.781-7.519 9.657-14.037 9.072-23.057 8.258-2.86-.257-6.107-.546-9.696-.529-11.887.062-22.826 5.145-33.405 10.058-3.558 1.65-7.233 3.358-10.87 4.834-7.596 3.082-15.576 4.735-22.776 4.735a45.4 45.4 0 0 1-2.703-.082c-9.374-.569-16.754-4.162-21.344-10.392-3.601-4.892-5.088-10.953-6.522-16.817-1.443-5.884-2.931-11.967-6.567-16.788-3.169-4.204-7.736-7.129-12.149-9.959-3.482-2.23-7.081-4.536-10.041-7.479-2.89-2.87-5.164-6.345-7.363-9.705-2.422-3.7-4.927-7.529-8.245-10.51-3.106-2.794-6.595-5.184-9.972-7.496C107.404 8.302 102.34 4.832 98.728 0h.707c3.549 4.59 8.46 7.953 13.578 11.457 3.389 2.325 6.896 4.726 10.03 7.541 3.374 3.032 5.897 6.891 8.341 10.623 2.182 3.335 4.439 6.784 7.286 9.616 2.918 2.897 6.492 5.19 9.948 7.402 4.457 2.855 9.064 5.81 12.295 10.092 3.707 4.916 5.209 11.056 6.664 16.996 1.423 5.808 2.891 11.816 6.43 16.614 4.484 6.095 11.72 9.608 20.924 10.164 7.785.473 16.745-1.164 25.233-4.612 3.622-1.469 7.292-3.175 10.844-4.823 10.633-4.94 21.628-10.043 33.64-10.11 3.618-.021 6.877.274 9.748.534 9.175.823 15.23 1.368 22.564-8.045 11.759-15.095 25.014-14.56 39.053-13.996M338 57.13c-2.12.225-4.275.38-6.524.527-2.884.185-5.804.232-8.629.281-7.55.13-14.678.25-21.501 2.733-4.518 1.643-8.15 3.947-11.436 7.247a36.655 36.655 0 0 1-5.76 4.715c-5.135 3.442-9.473 3.856-14.963 4.376-2.167.205-4.621.44-7.361.892-2.96.49-5.929 1.417-9.071 2.398l-.361.113-4.476 1.387c-8.899 2.75-18.103 5.594-27.097 8.84-3.963 1.422-8.454 3.035-13.057 3.904a42.387 42.387 0 0 1-7.842.75c-5.936 0-11.421-1.35-15.926-3.977a24.451 24.451 0 0 1-7.283-6.472c-3.056-4.063-4.713-8.94-6.027-13.195-.251-.81-.496-1.623-.741-2.436-1.638-5.443-3.332-11.073-6.737-15.679-2.969-4.017-7.064-7.024-11.025-9.929-1.761-1.29-3.58-2.627-5.291-4.042a41.993 41.993 0 0 1-3.748-3.462c-2.371-2.497-4.372-5.378-6.306-8.165-1.082-1.555-2.199-3.164-3.363-4.68-1.897-2.467-3.648-4.342-5.508-5.9-3.465-2.895-7.757-5.024-11.912-7.079-5.552-2.753-11.261-5.583-14.86-10.277h.701c3.47 4.351 8.817 7 14.41 9.77 4.183 2.076 8.51 4.22 12.022 7.155 1.894 1.584 3.673 3.487 5.595 5.991 1.173 1.525 2.295 3.14 3.377 4.7 1.923 2.77 3.912 5.63 6.256 8.097 1.067 1.125 2.277 2.244 3.697 3.417 1.698 1.404 3.51 2.734 5.263 4.022 3.994 2.93 8.127 5.963 11.145 10.05 3.462 4.682 5.17 10.361 6.824 15.847.244.814.488 1.626.739 2.434 1.299 4.21 2.937 9.033 5.939 13.024a23.933 23.933 0 0 0 7.118 6.323c6.317 3.684 14.621 4.81 23.379 3.162 4.557-.865 9.026-2.468 12.969-3.882 9.006-3.248 18.214-6.094 27.123-8.849 1.488-.46 2.979-.921 4.473-1.385l.364-.114c3.159-.986 6.148-1.92 9.144-2.415 2.758-.456 5.225-.689 7.401-.897 5.409-.516 9.683-.92 14.7-4.284a35.896 35.896 0 0 0 5.674-4.644c3.347-3.363 7.048-5.706 11.645-7.379 6.913-2.518 14.089-2.639 21.683-2.768 2.818-.048 5.732-.095 8.602-.28 2.263-.147 4.43-.306 6.562-.53v.565Zm-127.997 81.6c-.652.74-1.019 1.907-1.404 3.141-.733 2.332-1.559 4.976-4.547 5.341-1.641.203-3.27-.429-4.668-1.038-3.013-1.313-5.962-2.902-8.814-4.437l-.705-.38c-1.897-1.021-3.731-2.036-5.345-3.271-2.325-1.594-3.898-3.932-4.803-7.149-.626-3.403.891-6.436 3.666-7.369 4.185-1.016 8.312.154 12.303 1.283 2.168.613 4.411 1.248 6.653 1.532.758.099 1.668.112 2.634.126 3.752.063 8.006.133 8.212 4.478.133 2.891-1.63 5.979-3.182 7.743m3.742-7.768c-.228-4.874-5.16-4.956-8.763-5.015-.95-.014-1.846-.028-2.573-.12-2.2-.279-4.421-.91-6.571-1.517-4.062-1.15-8.259-2.336-12.612-1.281-3.074 1.031-4.747 4.33-4.062 8.023l.006.026c.931 3.306 2.622 5.821 5.021 7.463 1.632 1.252 3.49 2.282 5.407 3.311l.704.38c2.861 1.541 5.82 3.136 8.856 4.458 1.359.59 2.805 1.125 4.268 1.125.231 0 .463-.015.694-.043 3.348-.413 4.272-3.361 5.017-5.732.366-1.175.716-2.289 1.287-2.939 1.622-1.845 3.466-5.079 3.321-8.139M88.589 81.892c-.528.776-1.334 1.023-1.92 1.095-1.164.14-2.485-.287-3.37-1.09-1.357-1.232-2.042-3.043-2.704-4.795l-.279-.728a40.157 40.157 0 0 0-12.374-16.837 93.64 93.64 0 0 0-1.185-.919c-1.42-1.09-2.888-2.219-3.994-3.63-.803-1.025-1.917-3.027-1.7-4.355.07-.433.277-.754.623-.984 1.306-.858 3.75 1.035 4.925 1.946l.273.211c1.94 1.48 3.626 3.324 5.257 5.108.716.785 1.46 1.597 2.216 2.373 1.316 1.342 2.728 2.625 4.095 3.865 1.72 1.561 3.498 3.175 5.083 4.913 3.346 3.676 5.209 7.373 5.542 10.987.118 1.271-.04 2.173-.488 2.84M89.638 79c-.342-3.74-2.256-7.546-5.686-11.313-1.604-1.76-3.39-3.383-5.121-4.952-1.36-1.236-2.766-2.512-4.068-3.842-.752-.769-1.491-1.578-2.208-2.36-1.645-1.803-3.347-3.665-5.33-5.175l-.267-.208c-1.376-1.067-3.939-3.052-5.582-1.972a1.945 1.945 0 0 0-.867 1.364 2.777 2.777 0 0 0-.034.442c0 1.564 1.166 3.487 1.843 4.347 1.15 1.47 2.646 2.62 4.095 3.731.395.303.79.607 1.176.916a39.55 39.55 0 0 1 12.2 16.597c.095.24.186.481.279.725.685 1.816 1.395 3.692 2.853 5.013.87.793 2.125 1.26 3.309 1.26.169 0 .341-.008.507-.028 1.006-.122 1.81-.586 2.317-1.34.693-1.026.665-2.323.584-3.206M338 184.776v.565c-7.681-.514-13.414-3.734-18.981-6.865-4.369-2.452-8.496-4.773-13.206-5.49-3.823-.579-7.868-1.513-12.73-2.939-12.707-3.723-22.491-2.233-30.796 4.695-5.211 4.347-10.107 7.709-17.056 9.978a24.151 24.151 0 0 1-7.475 1.17c-4.239 0-8.485-1.08-12.157-3.178-5.508-3.153-9.46-8.814-11.127-15.941-2.113-9.048-.405-19.325 4.688-28.195 3.519-6.129 8.538-11.602 14.92-16.271l.637-.467c1.692-1.245 3.44-2.534 5.375-3.43 1.63-.754 3.392-1.092 5.094-1.418.483-.09.964-.183 1.443-.285 2.102-.444 3.941-1.651 5.647-2.848a32.477 32.477 0 0 0 7.83-7.778c.825-1.161 1.539-2.455 2.298-3.824 1.524-2.765 3.102-5.626 5.669-7.346 1.032-.694 2.233-1.388 3.396-2.056 1.897-1.099 4.498-2.6 4.365-3.224-.033-.157-.148-.282-.352-.377-1.905-.917-9.478 1.258-11.331 2.177-1.348.672-2.717 1.37-4.039 2.044-4.915 2.505-10.002 5.095-15.279 6.993-3.63 1.305-7.466 1.899-11.178 2.473-3.307.512-6.723 1.04-9.956 2.069-2.019.645-4.056 1.604-6.027 2.531-2.985 1.404-6.075 2.855-9.288 3.333-1.578.237-3.165.692-4.698 1.133-2.363.682-4.807 1.381-7.298 1.311-8.048-.244-13.671-2.249-19.112-4.188a215.197 215.197 0 0 0-3.667-1.279c-1.244-.416-2.543-.616-3.797-.813-2.72-.421-5.288-.821-6.892-3.279-1.272-1.943-1.725-4.26-2.167-6.5-.073-.372-.144-.743-.22-1.112-2.695-12.99-10.997-25.009-22.204-32.144-3.659-2.332-7.845-4.075-12.273-5.923-5.561-2.318-11.309-4.714-17.045-8.609-3.633-2.467-4.851-6.5-6.029-10.398-1.023-3.383-2.081-6.885-4.724-9.303-5.562-5.086-5.619-13.363-5.669-20.667-.026-3.403-.049-6.567-.6-9.1h.577c.542 2.57.561 5.716.587 9.095.048 7.19.106 15.34 5.485 20.258 2.756 2.523 3.839 6.098 4.882 9.555 1.203 3.982 2.34 7.74 5.81 10.095 5.688 3.863 11.41 6.247 16.943 8.557 4.454 1.855 8.657 3.607 12.357 5.965 5.605 3.57 10.611 8.415 14.481 14.014 3.87 5.603 6.627 11.995 7.972 18.493.079.368.152.743.225 1.114.428 2.188.874 4.452 2.083 6.304 1.468 2.247 3.916 2.627 6.506 3.031 1.279.197 2.601.402 3.892.836 1.246.416 2.481.854 3.679 1.282 5.398 1.924 10.979 3.912 18.937 4.154 2.404.074 4.806-.619 7.122-1.288 1.554-.447 3.158-.908 4.772-1.15 3.135-.465 6.186-1.899 9.134-3.285 1.987-.937 4.042-1.902 6.094-2.557 3.275-1.043 6.715-1.575 10.043-2.09 3.684-.57 7.493-1.158 11.072-2.448 5.246-1.887 10.311-4.469 15.214-6.963a506.06 506.06 0 0 1 4.045-2.047c1.555-.773 9.549-3.273 11.826-2.183.364.178.586.436.657.77.211.977-1.533 2.036-4.634 3.825-1.152.666-2.345 1.357-3.363 2.037-2.452 1.645-3.998 4.445-5.49 7.15-.733 1.324-1.488 2.694-2.331 3.879a33.048 33.048 0 0 1-7.967 7.914c-1.749 1.232-3.647 2.472-5.851 2.939-.484.102-.969.194-1.455.287-1.671.321-3.399.649-4.964 1.375-1.882.871-3.608 2.143-5.276 3.371l-.64.471c-6.317 4.62-11.284 10.034-14.762 16.093-5.026 8.749-6.712 18.877-4.629 27.787 1.63 6.976 5.485 12.508 10.858 15.581 5.731 3.28 12.899 4.014 19.177 1.964 6.863-2.242 11.708-5.569 16.87-9.878 8.461-7.057 18.41-8.584 31.314-4.801 4.837 1.417 8.859 2.349 12.656 2.925 4.811.731 8.983 3.074 13.398 5.555 5.499 3.091 11.159 6.272 18.705 6.789m-182.189-73.615c-.877 4.192-2.627 6.934-5.347 8.382-1.556.827-3.337 1.176-5.282 1.176-5.382 0-12.003-2.678-18.463-5.294-4.358-1.763-8.477-3.43-12.008-4.187-6.041-1.151-11.795.782-17.356 2.65l-.438.148c-5.14 1.649-9.788 2.97-14.65 2.475-5.839-.596-10.954-3.773-15.904-6.848-1.533-.954-3.118-1.938-4.694-2.824-12.566-7.076-27.858-9.377-41.954-6.314-5.798 1.258-11.639 3.418-17.285 5.504l-2.43.894v-.598c.741-.273 1.488-.548 2.235-.825 5.664-2.092 11.52-4.257 17.361-5.526 14.23-3.092 29.668-.768 42.35 6.376 1.587.892 3.177 1.879 4.713 2.835 4.896 3.04 9.959 6.185 15.664 6.768 4.758.486 9.344-.825 14.421-2.451l.43-.146c4.447-1.493 9.012-3.027 13.782-3.027 1.274 0 2.562.11 3.865.358 3.587.767 7.728 2.443 12.109 4.219 8.67 3.506 17.637 7.138 23.266 4.142 2.568-1.367 4.223-3.982 5.063-8.002 2.167-10.26-.26-20.669-6.833-29.309-6.736-8.85-16.197-15.336-25.414-21.024-2.9-1.789-5.912-3.515-8.82-5.183a445.291 445.291 0 0 1-6.182-3.589c-2.753-1.637-6.162-3.945-8.092-7.3-.632-1.096-1.154-2.229-1.66-3.325-1.181-2.56-2.3-4.979-4.648-6.826-.736-.58-1.566-1.078-2.366-1.562-.95-.57-1.93-1.16-2.793-1.903-3.874-3.342-2.128-9.628-.854-14.218.149-.53.29-1.04.414-1.518l.243-.925C89.483 9.68 90.747 4.866 90.33 0h.567c.414 4.94-.86 9.79-2.1 14.506l-.243.926c-.124.478-.265.99-.414 1.527-1.235 4.444-2.924 10.534.68 13.641.825.711 1.786 1.288 2.717 1.848.814.49 1.657.998 2.421 1.6 2.455 1.932 3.6 4.41 4.811 7.032.499 1.084 1.018 2.207 1.636 3.28 1.865 3.242 5.196 5.497 7.891 7.097 2.047 1.215 4.147 2.42 6.177 3.586 2.912 1.671 5.925 3.398 8.834 5.192 9.265 5.715 18.772 12.237 25.565 21.162 6.675 8.771 9.139 19.345 6.938 29.764M338 51.978c-5.318 1.39-9.736 2.098-15.28 2.986l-.925.15c-4.505.725-9.146.956-13.638 1.178-5.119.253-9.952.493-14.635 1.398-2.438.472-4.346 1.66-6.37 2.914-1.514.94-3.078 1.912-4.873 2.545-1.78.627-3.501.745-5.168.861-2.382.165-4.632.32-6.908 1.903-1.514 1.052-2.813 2.225-4.067 3.36-2.139 1.93-4.158 3.752-7.118 4.995-1.071.447-2.148.975-3.288 1.531-1.446.71-2.94 1.444-4.618 2.115-5.37 2.132-11.028 3.103-16.496 4.043-4.392.753-8.93 1.53-13.353 2.908-1.387.427-2.81.925-4.186 1.406-2.61.913-5.308 1.858-8.07 2.444-2.28.481-4.577.718-6.841.718-5.606 0-11.016-1.45-15.472-4.228a25.74 25.74 0 0 1-6.822-6.19c-2.906-3.778-4.716-8.284-6.181-12.21-.279-.742-.553-1.488-.826-2.236-1.838-5.003-3.741-10.178-6.911-14.572-2.772-3.833-6.397-6.919-9.901-9.902-1.552-1.322-3.157-2.688-4.676-4.106a52.926 52.926 0 0 1-3.363-3.423c-1.804-2.03-3.439-4.26-5.02-6.42-1.361-1.86-2.767-3.78-4.27-5.55-1.798-2.124-3.583-3.856-5.455-5.299-3.232-2.489-7.105-4.398-10.85-6.24C117.371 6.57 112.196 4.018 108.625 0h.741c3.419 3.682 8.259 6.067 13.305 8.55 3.768 1.857 7.664 3.777 10.942 6.303 1.903 1.465 3.715 3.225 5.542 5.377 1.514 1.786 2.928 3.716 4.295 5.583 1.574 2.148 3.197 4.368 4.987 6.38a50.796 50.796 0 0 0 3.327 3.385c1.508 1.41 3.108 2.77 4.654 4.09 3.531 3.006 7.182 6.114 9.991 10 3.22 4.455 5.134 9.667 6.983 14.71.273.743.546 1.488.826 2.23 1.451 3.89 3.242 8.35 6.102 12.066a25.23 25.23 0 0 0 6.673 6.053c6.136 3.825 14.116 5.08 21.896 3.438 2.728-.579 5.409-1.518 8.002-2.425 1.381-.484 2.808-.983 4.206-1.412 4.457-1.386 9.015-2.169 13.423-2.925 5.44-.934 11.068-1.9 16.382-4.012 1.662-.663 3.144-1.392 4.582-2.095 1.146-.562 2.229-1.094 3.317-1.55 2.869-1.204 4.853-2.995 6.955-4.893 1.27-1.146 2.581-2.329 4.126-3.4 2.404-1.67 4.838-1.84 7.192-2.003 1.627-.116 3.31-.23 5.015-.832 1.739-.61 3.278-1.567 4.768-2.493 1.974-1.226 4.018-2.494 6.558-2.986 4.721-.914 9.802-1.165 14.715-1.409 4.476-.223 9.101-.45 13.575-1.17l.926-.15c5.578-.894 10.008-1.605 15.369-3.01v.578Zm0 15.367a17.281 17.281 0 0 0-.46-.022c-8.611-.355-16.338 1.083-22.955 4.27l-.806.38c-2.369 1.112-5.614 2.637-6.684 4.75-.371.728-.459 1.366-.266 1.895.217.588.796 1.084 1.724 1.474.903.38 2.028.61 3.105.757a38.02 38.02 0 0 0 2.831.258l.436.028c6.436.442 13.093.9 19.502 4.432.821.454 1.631.974 2.411 1.477.384.246.772.496 1.162.737v.658a53.344 53.344 0 0 1-1.467-.922c-.77-.498-1.572-1.013-2.378-1.457-6.301-3.474-12.893-3.927-19.269-4.362l-.433-.028c-1.476-.093-4.22-.264-6.118-1.06-.537-.228-.977-.492-1.32-.79a2.535 2.535 0 0 1-.716-1.007c-.25-.681-.151-1.469.292-2.344 1.161-2.287 4.506-3.859 6.947-5.006l.8-.377c6.704-3.226 14.518-4.683 23.225-4.326.146.006.291.014.437.023v.562ZM0 90.31c2.821-.535 5.855-1.388 9.011-2.546 2.456-.896 4.849-1.892 7.166-2.853l.034-.016c2.475-1.02 5.35-2.195 8.163-3.206 4.46-1.606 9.513-3.102 14.78-3.102 2.076 0 4.187.234 6.31.782 4.065 1.055 7.699 3.25 10.413 5.046 3.388 2.238 5.738 5.6 8.014 8.85 1.731 2.474 3.518 5.028 5.74 7.047 3.9 3.541 9.659 5.329 15.409 4.783 2.433-.23 4.699-1.285 6.892-2.306 2.106-.981 4.281-1.994 6.658-2.326 4.307-.598 8.964.869 13.465 2.286 6.622 2.088 13.472 4.247 19.269-.185.159-.117.313-.244.468-.373 6.249-5.267 4.457-15.942-.4-23.312-6.92-10.496-17.42-17.943-27.585-24.676-1.217-.808-2.441-1.613-3.661-2.416-4.561-2.998-9.274-6.104-13.57-9.252-3.244-2.38-6.567-5.025-8.44-8.855a15.005 15.005 0 0 1-1.194-3.403C75.856 25.358 77.17 20 78.444 14.82 79.65 9.903 80.897 4.834 80.172 0h.573c.71 4.913-.542 10.01-1.754 14.953-1.313 5.353-2.557 10.41-1.5 15.203a14.565 14.565 0 0 0 1.153 3.276c1.816 3.715 5.08 6.312 8.265 8.651 4.285 3.14 8.995 6.24 13.547 9.237 1.221.803 2.443 1.608 3.662 2.416 10.212 6.76 20.768 14.251 27.745 24.834 4.992 7.572 6.79 18.575.293 24.05-.164.135-.324.268-.49.391-6.03 4.61-13.02 2.408-19.78.275-4.442-1.4-9.035-2.845-13.22-2.266-2.29.318-4.428 1.316-6.498 2.278-2.235 1.041-4.546 2.118-7.074 2.358-.699.067-1.399.097-2.092.097-5.187 0-10.21-1.81-13.75-5.025-2.269-2.06-4.076-4.641-5.823-7.14-2.244-3.209-4.565-6.523-7.865-8.706-2.675-1.77-6.258-3.935-10.24-4.968-7.355-1.907-14.621.093-20.758 2.303-2.802 1.005-5.672 2.178-8.139 3.198l-.033.015c-2.322.964-4.721 1.96-7.188 2.862C5.985 89.476 2.884 90.345 0 90.88v-.57Zm0-11.504a26.48 26.48 0 0 0 4.55-1.486c2.17-.93 4.388-2.16 6.787-3.765 2.585-1.727 5.032-3.639 7.192-5.326 5.335-4.174 11.026-8.177 17.22-8.177.864 0 1.739.08 2.623.245 3.88.731 7.267 3.187 10.137 5.431 1.812 1.417 3.742 2.765 5.612 4.067 3.606 2.514 7.334 5.114 10.438 8.37 2.004 2.107 3.23 4.671 4.414 7.152 1.66 3.47 3.228 6.75 6.745 8.793 3.58 2.08 7.702.77 11.688-.498 1.775-.563 3.61-1.148 5.383-1.426 1.666-.266 3.71-.026 5.874.226 4.098.48 8.335.974 10.316-1.925.077-.113.154-.228.227-.346 3.131-4.992.504-11.979-2.698-16.442-5.105-7.117-12.067-12.693-18.801-18.087a450.213 450.213 0 0 1-4.725-3.82c-5.617-4.64-9.713-8.654-12.89-12.628-2.71-3.392-4.333-6.266-5.268-9.315-.307-.993-.54-2.03-.691-3.083-.592-4.176.082-8.572.733-12.824.71-4.644 1.443-9.43.522-13.942h.586c.904 4.573.169 9.371-.544 14.026-.645 4.213-1.313 8.566-.733 12.66.146 1.022.372 2.03.674 2.997.91 2.976 2.506 5.791 5.166 9.126 3.152 3.943 7.222 7.93 12.81 12.545a421.877 421.877 0 0 0 4.717 3.813c6.763 5.42 13.759 11.023 18.909 18.2 3.303 4.606 5.998 11.843 2.714 17.078a8.375 8.375 0 0 1-.236.363c-2.174 3.183-6.588 2.668-10.856 2.171-2.122-.248-4.13-.484-5.716-.231-1.731.272-3.546.85-5.302 1.406-2.52.802-5.097 1.62-7.588 1.62-1.565 0-3.095-.32-4.557-1.172-3.672-2.133-5.348-5.642-6.972-9.04-1.167-2.44-2.374-4.963-4.316-7.003-3.064-3.218-6.767-5.8-10.35-8.297-1.875-1.309-3.814-2.658-5.638-4.087-2.945-2.304-6.136-4.612-9.888-5.318-6.989-1.314-13.41 3.141-19.387 7.821-2.168 1.693-4.624 3.611-7.228 5.35-2.427 1.623-4.677 2.871-6.878 3.813A26.634 26.634 0 0 1 0 79.385v-.579ZM92.324 89.15c-3.287 2.784-8.281 3.25-11.876 1.11-3.256-1.938-5.062-5.514-6.81-8.972-.253-.498-.504-.996-.758-1.486a63.253 63.253 0 0 0-14.89-18.748 127.68 127.68 0 0 0-3.08-2.525c-2.884-2.315-5.868-4.708-8.088-7.698-2.674-3.605-4.531-9.3-2.285-13.289 2.167-3.847 7.706-3.633 10.948-2.253 2.858 1.218 4.753 3.482 6.754 5.878.47.563.959 1.145 1.46 1.713 3.938 4.475 8.502 8.963 12.47 12.82 1.906 1.853 3.944 3.633 5.912 5.358 3.252 2.846 6.615 5.79 9.462 9.117 1.466 1.711 3.51 4.343 4.31 7.423 1.094 4.197-.328 8.84-3.53 11.552m4.054-11.688c-.828-3.189-2.92-5.886-4.423-7.638-2.872-3.358-6.25-6.314-9.515-9.174-1.965-1.719-3.995-3.496-5.892-5.338-3.96-3.848-8.515-8.328-12.442-12.789a85.03 85.03 0 0 1-1.448-1.7c-2.047-2.45-3.978-4.76-6.96-6.032-3.425-1.46-9.3-1.653-11.634 2.484-.75 1.328-1.068 2.832-1.068 4.385 0 3.352 1.494 6.935 3.39 9.492 2.264 3.046 5.275 5.462 8.187 7.8 1.014.815 2.066 1.66 3.066 2.513a62.748 62.748 0 0 1 14.76 18.585c.254.49.504.985.755 1.483 1.784 3.526 3.628 7.172 7.019 9.192 1.593.947 3.445 1.411 5.316 1.411 2.576 0 5.184-.878 7.185-2.574 3.36-2.844 4.848-7.706 3.704-12.1M338 105.28a9.111 9.111 0 0 1-.739-.256c-3.026-1.213-4.853-4.026-6.618-6.745-1.552-2.389-3.156-4.86-5.568-6.225-2.828-1.6-6.093-1.418-9.543-1.22-1.681.096-3.417.195-5.092.064-1.547-.12-3.086-.444-4.573-.76-1.424-.3-2.899-.609-4.362-.733a17.877 17.877 0 0 0-1.541-.067c-10.064 0-18.406 8.338-22.597 13.487-6.116 7.514-12.264 14.722-20.199 20.302-3.592 2.526-7.615 4.458-11.505 6.323-3.949 1.895-8.033 3.853-11.642 6.429-8.065 5.754-15.027 16.763-12.411 28.381.91 4.041 4.118 7.931 8.586 10.401 4.307 2.384 9.054 3.048 12.693 1.777 2.176-.762 4.693-2.008 7.032-3.6 2.343-1.594 4.511-3.532 5.986-5.681l.778-1.136c5.357-7.83 10.417-15.225 19.677-16.869 3.601-.642 6.694-.372 9.19.806 1.758.83 3.305 2.144 4.802 3.414 2.317 1.967 4.504 3.826 7.343 3.936 1.672.064 3.25-.516 4.917-1.131 1.567-.577 3.185-1.176 4.878-1.176h.076c2.04.023 3.924.909 5.53 1.736 1.499.773 2.991 1.623 4.435 2.444 3.475 1.98 7.072 4.027 10.959 5.115 2.94.825 6.408.996 9.508.158v.58c-3.169.824-6.682.64-9.66-.195-3.956-1.11-7.58-3.173-11.088-5.169-1.439-.818-2.927-1.665-4.412-2.433-1.547-.798-3.36-1.654-5.277-1.673-1.618-.015-3.214.571-4.754 1.141-1.644.605-3.352 1.236-5.133 1.166-3.035-.119-5.4-2.127-7.688-4.071-1.469-1.246-2.989-2.537-4.679-3.333-2.384-1.128-5.362-1.384-8.845-.764-9.033 1.605-14.025 8.907-19.311 16.635l-.782 1.137c-3.021 4.404-8.857 7.939-13.295 9.492-1.278.447-2.681.666-4.152.666-2.899 0-6.052-.846-9.002-2.48-4.606-2.548-7.917-6.573-8.862-10.769-2.672-11.872 4.418-23.099 12.631-28.964 3.647-2.601 7.755-4.573 11.726-6.476 3.87-1.857 7.872-3.778 11.428-6.276 7.875-5.54 13.996-12.714 20.087-20.199 4.469-5.493 13.611-14.569 24.622-13.627 1.498.13 2.987.445 4.43.749 1.469.31 2.989.63 4.5.745 1.636.127 3.353.032 5.014-.064 3.382-.192 6.879-.39 9.856 1.293 2.53 1.433 4.173 3.964 5.759 6.41 1.8 2.768 3.495 5.381 6.357 6.525.175.071.35.132.53.189v.591ZM0 73.043c.77-.25 1.54-.554 2.3-.906 5.251-2.43 9.635-6.78 13.328-10.67 4.224-4.447 10.452-11 17.558-11 .563 0 1.133.043 1.708.13 3.794.573 6.892 2.992 9.992 5.636a298.743 298.743 0 0 1 15.233 13.92c.79.772 1.606 1.538 2.473 2.347 3.647 3.424 7.42 6.962 9.473 11.34.22.474.434.95.646 1.424.792 1.767 1.61 3.589 2.81 5.089 1.974 2.455 5.67 3.416 10.142 2.638 5.682-.995 10.776-4.543 12.112-8.439 1.638-4.784-1.15-9.854-3.775-13.269-4.1-5.33-9.27-9.793-14.273-14.11-2.4-2.07-4.882-4.214-7.222-6.43-9.122-8.64-13.961-17.043-14.792-25.69-.356-3.656.024-7.432.391-11.084.47-4.666.956-9.477-.136-13.969h.593c1.07 4.545.586 9.357.118 14.026-.367 3.625-.741 7.371-.395 10.971.82 8.502 5.6 16.788 14.616 25.33 2.33 2.205 4.808 4.345 7.205 6.412 5.022 4.335 10.215 8.818 14.353 14.195 2.709 3.523 5.581 8.78 3.862 13.805-1.421 4.147-6.585 7.772-12.558 8.816-1.05.184-2.058.273-3.02.273-3.32 0-6.034-1.08-7.669-3.12-1.249-1.55-2.08-3.41-2.887-5.207a75.99 75.99 0 0 0-.642-1.416c-2.007-4.28-5.74-7.778-9.347-11.165-.87-.813-1.686-1.58-2.48-2.36A300.314 300.314 0 0 0 44.51 56.668c-3.036-2.587-6.06-4.955-9.704-5.506-6.935-1.046-13.072 4.711-18.76 10.7-3.732 3.927-8.162 8.324-13.504 10.797-.84.387-1.689.716-2.543.986v-.602Zm229.652 85.366c1.218 5.684 6.429 9.689 11.055 11.134 6.004 1.876 11.917-.866 17.572-8.156 3.171-4.083 6.449-8.308 11.075-11.05.299-.179.594-.357.892-.534 2.488-1.494 4.841-2.905 7.837-3.406 3.218-.537 5.986-.29 8.224.734 1.58.72 2.977 1.859 4.328 2.958 2.089 1.702 4.063 3.308 6.594 3.418 1.5.062 2.901-.425 4.391-.942 1.424-.495 2.89-1.01 4.435-.985 1.821.029 3.513.793 4.958 1.51 1.31.654 2.621 1.364 3.891 2.054 3.151 1.718 6.409 3.493 9.919 4.415 3.996 1.069 9.703.968 13.177-2.602v.786c-3.667 3.36-9.324 3.428-13.323 2.362-3.573-.943-6.863-2.734-10.045-4.466-1.262-.686-2.568-1.398-3.869-2.045-1.391-.689-3.015-1.426-4.716-1.451-1.442-.025-2.863.476-4.24.953-1.474.512-3.007 1.044-4.603.974-2.717-.118-4.857-1.86-6.926-3.544-1.322-1.077-2.692-2.195-4.206-2.886-2.134-.974-4.793-1.207-7.894-.687-2.894.482-5.2 1.869-7.643 3.333l-.894.535c-4.532 2.686-7.779 6.868-10.916 10.913-4.62 5.951-9.432 8.949-14.347 8.949-1.275 0-2.554-.2-3.84-.603-4.781-1.496-10.17-5.647-11.439-11.553-2.128-9.916 4.38-19.833 11.326-24.848 3.226-2.329 6.808-4.123 10.272-5.856 3.275-1.636 6.663-3.329 9.727-5.473 6.84-4.75 12.334-11.104 17.645-17.249l.472-.543c2.82-3.263 5.784-5.92 8.802-7.898 4.46-2.927 8.91-4.263 13.229-3.97 1.328.09 2.651.337 3.93.575 1.302.245 2.649.498 3.991.578 1.435.084 2.947-.017 4.404-.115 3.01-.203 6.124-.414 8.806 1 2.309 1.222 3.857 3.412 5.355 5.529 1.674 2.372 3.255 4.608 5.816 5.635 1.6.641 3.345.683 5.126.503v.565c-1.833.183-3.644.129-5.336-.546-2.717-1.088-4.42-3.501-6.07-5.834-1.457-2.064-2.965-4.198-5.157-5.355-2.537-1.34-5.434-1.144-8.501-.94-1.477.103-3.004.208-4.478.118-1.375-.08-2.742-.336-4.061-.586-1.262-.236-2.567-.482-3.864-.568a16.752 16.752 0 0 0-1.125-.038c-3.842 0-7.791 1.316-11.753 3.918-2.978 1.95-5.898 4.573-8.689 7.797l-.468.543c-5.336 6.171-10.852 12.553-17.749 17.343-3.102 2.165-6.506 3.869-9.8 5.515-3.444 1.723-7.005 3.503-10.192 5.807-6.804 4.914-13.182 14.606-11.105 24.275M54.064 27.327C53.4 28.64 51.995 29.69 50.49 30c-1.192.248-2.298.012-3.115-.666-.47-.39-.789-.878-.893-1.373-.254-1.192.287-2.317.815-3.405.174-.363.355-.737.502-1.108.194-.48.374-.962.555-1.444.174-.467.352-.933.538-1.4 1.748-4.376 1.161-10.074.773-13.843-.173-1.677-.37-3.571-.103-3.791.398-.22.765-.27 1.111-.149.764.264 1.283 1.28 1.525 1.859 1.142 2.736 3.076 20.258 1.866 22.647M52.72 4.463c-.341-.815-.94-1.853-1.86-2.171a1.676 1.676 0 0 0-.565-.098c-.329 0-.668.095-1.008.287-.573.317-.477 1.487-.184 4.336.383 3.716.961 9.332-.735 13.58-.189.47-.364.941-.541 1.411-.181.476-.36.953-.55 1.43-.144.353-.31.702-.49 1.073-.565 1.173-1.151 2.388-.858 3.766.133.62.519 1.22 1.089 1.691.707.587 1.595.891 2.564.891.333 0 .674-.037 1.021-.107 1.694-.35 3.213-1.49 3.963-2.97 1.399-2.759-.834-20.69-1.846-23.119m258.314 61.04c7.899-4.354 17.171-4.466 26.966-3.344v-.569c-9.867-1.127-19.217-.998-27.235 3.421-3.629 2-6.799 4.82-9.869 7.548-3.922 3.488-7.977 7.094-12.935 8.885-5.13 1.851-10.754 1.595-16.192 1.345-2.703-.125-5.498-.25-8.221-.125-10.646.504-20.653 4.903-29.986 9.367l-2.461 1.18c-8.55 4.117-17.392 8.37-26.815 9.986-11.599 1.988-22.497-.777-29.155-7.392-5.398-5.36-7.886-12.876-10.294-20.14-2.357-7.108-4.792-14.454-9.942-19.902-3.995-4.222-9.256-6.05-14.348-7.815-7.433-2.579-14.454-5.015-16.904-14.553-.16-.62-.312-1.24-.465-1.856-1.141-4.613-2.219-8.972-5.618-12.629-2.128-2.289-4.625-4.226-7.04-6.099-1.659-1.285-3.372-2.613-4.945-4.039a104.806 104.806 0 0 0-1.832-1.612c-2.379-2.064-5.193-4.5-6.924-7.16h-.662c1.75 2.849 4.719 5.42 7.216 7.585.649.563 1.266 1.094 1.824 1.603 1.587 1.44 3.31 2.776 4.975 4.067 2.399 1.86 4.879 3.782 6.974 6.038 3.301 3.553 4.361 7.84 5.486 12.381.152.616.304 1.238.464 1.86 2.526 9.832 9.686 12.315 17.265 14.945 5.026 1.744 10.224 3.547 14.126 7.673 5.062 5.354 7.478 12.641 9.814 19.69 2.428 7.326 4.938 14.906 10.433 20.364 5.341 5.308 13.346 8.186 22.256 8.186a43.75 43.75 0 0 0 7.391-.641c9.5-1.63 18.379-5.9 26.965-10.032.821-.393 1.641-.788 2.458-1.18 9.283-4.44 19.228-8.814 29.77-9.312 2.697-.126 5.478 0 8.17.124 3.021.138 6.097.281 9.127.065-3.517.481-7.116.608-10.654.731-3.541.124-7.203.254-10.733.725-11.525 1.544-22.162 6.802-32.451 11.886-5.333 2.636-10.849 5.363-16.433 7.547-4.724 1.845-11.831 4.231-18.973 3.626-10.918-.923-21.206-8.888-26.215-20.294-1.499-3.414-2.419-7.098-3.307-10.665-.707-2.835-1.437-5.769-2.458-8.562-3.813-10.436-14.677-13.4-25.185-16.266-3.481-.95-6.768-1.849-9.713-2.999-3.55-1.389-5.886-3.313-6.949-5.723-1.043-2.37-.775-4.995-.515-7.532.062-.597.123-1.212.168-1.813.256-3.477-.282-6.464-1.697-9.4-2.844-5.898-7.881-10.39-12.749-14.735l-.448-.4C99.991 7.25 97.074 3.96 95.718 0h-.595c1.367 4.154 4.397 7.585 7.06 9.961l.449.401c4.828 4.308 9.82 8.763 12.617 14.56 1.37 2.843 1.891 5.737 1.643 9.115-.045.59-.107 1.204-.169 1.797-.268 2.61-.544 5.307.562 7.813 1.123 2.551 3.565 4.58 7.257 6.021 2.974 1.164 6.275 2.065 9.77 3.018 10.37 2.83 21.09 5.752 24.805 15.916 1.013 2.766 1.74 5.685 2.441 8.506.894 3.588 1.819 7.298 3.338 10.758 5.091 11.587 15.563 19.685 26.682 20.628a29.2 29.2 0 0 0 2.36.095c6.433 0 12.611-2.095 16.868-3.762 5.606-2.191 11.133-4.924 16.478-7.564 10.246-5.066 20.841-10.304 32.272-11.833 3.507-.47 7.154-.597 10.68-.724 6.924-.24 14.086-.495 20.485-3.349 4.57-2.042 8.503-5.313 12.309-8.48 4.177-3.473 8.5-7.064 13.618-8.96 6.839-2.534 14.549-1.786 21.352-.66v-.572c-6.85-1.128-14.61-1.864-21.549.703-5.21 1.93-9.567 5.555-13.782 9.06-3.083 2.564-6.257 5.203-9.767 7.176 3.017-1.883 5.722-4.292 8.37-6.645 3.045-2.709 6.195-5.507 9.762-7.476M338 93.946c-1.693-.985-3.126-2.385-4.522-3.752-1.497-1.465-3.045-2.98-4.89-3.946-3.856-2.017-8.419-1.443-12.832-.886-1.502.191-3.057.385-4.563.478-2.544.154-5.13-.003-7.627-.152-2.802-.168-5.697-.343-8.524-.075-14.295 1.34-24.833 13.332-31.158 23.156-.246.383-.492.77-.737 1.156-1.95 3.069-3.969 6.237-6.901 8.459-3.21 2.434-7.188 3.486-11.031 4.504-1.398.367-2.842.75-4.223 1.191-10.035 3.212-18.376 10.452-22.307 19.365-4.028 9.129-2.88 20.379 2.931 28.662 6.184 8.817 19.348 11.806 28.744 6.528 3.778-2.124 6.857-5.333 9.836-8.437 1.496-1.565 3.047-3.179 4.673-4.647 6.073-5.478 12.861-7.535 18.154-5.496 1.666.642 3.156 1.668 4.597 2.661 1.513 1.037 3.078 2.114 4.817 2.714 2.99 1.032 6.111.619 9.413.18 2.555-.337 5.196-.689 7.758-.298 4.728.717 8.564 3.794 12.276 6.769 1.254 1.007 2.551 2.045 3.858 2.973 3.887 2.76 8.08 4.588 12.258 5.395v.571c-4.293-.811-8.601-2.681-12.587-5.507-1.319-.936-2.62-1.983-3.88-2.993-3.655-2.928-7.431-5.956-12.008-6.654-2.485-.377-5.087-.031-7.599.3-3.222.428-6.555.872-9.675-.205-1.809-.624-3.406-1.72-4.949-2.784-1.416-.973-2.879-1.977-4.483-2.596-5.093-1.96-11.662.054-17.571 5.386-1.614 1.454-3.155 3.063-4.645 4.618-3.007 3.133-6.116 6.376-9.966 8.539-3.235 1.82-6.91 2.68-10.604 2.68-7.298 0-14.669-3.369-18.88-9.374-2.914-4.159-4.741-9.081-5.274-14.233-.538-5.184.254-10.365 2.289-14.98 3.998-9.059 12.465-16.411 22.652-19.67 1.394-.447 2.843-.83 4.249-1.201 3.793-1.004 7.717-2.043 10.838-4.408 2.849-2.162 4.839-5.29 6.763-8.314l.742-1.161c6.39-9.927 17.056-22.046 31.575-23.409 2.87-.27 5.788-.096 8.612.072 2.481.15 5.05.305 7.56.153 1.489-.09 3.033-.284 4.527-.473 4.499-.568 9.151-1.156 13.161.945 1.92 1.004 3.499 2.548 5.026 4.044 1.289 1.261 2.611 2.552 4.127 3.493v.66Zm0-24.993c-.18-.007-.357-.016-.534-.025-6.304-.244-12.015.724-16.974 2.878l-.468.202c-1.783.766-4.231 1.815-5.155 3.274-.246.382-.367.737-.367 1.054 0 .1.012.192.033.282.102.411.447.788 1.022 1.117.702.402 1.701.711 2.754.85.589.077 1.139.125 1.58.161l1.403.127c4.898.442 9.523.862 14.034 2.985.505.233.99.492 1.358.69.177.095.356.19.53.285.26.141.519.285.784.422v.636c-.356-.183-.704-.374-1.053-.563-.175-.095-.353-.19-.529-.287-.36-.193-.84-.447-1.33-.674-4.419-2.082-8.998-2.496-13.845-2.934l-1.399-.126a31.027 31.027 0 0 1-1.609-.166c-1.119-.147-2.197-.48-2.958-.917-.716-.41-1.15-.905-1.288-1.47-.134-.544 0-1.14.404-1.773 1.018-1.606 3.556-2.694 5.408-3.49l.466-.2c5.036-2.19 10.831-3.175 17.222-2.925.168.005.339.014.511.025v.562Zm-15.382 4.912c-.266.27-.397.531-.397.793 0 .251.123.502.371.754.398.407.997.703 1.638.818.408.073.81.124 1.13.166l.21.028c.933.123 1.875.225 2.789.323 2.721.292 5.289.572 7.851 1.396.313.101.634.211.99.343l.377.137c.142.053.283.104.423.158v.598a62.788 62.788 0 0 1-.62-.227l-.375-.14a33.233 33.233 0 0 0-.967-.336c-2.51-.804-5.048-1.079-7.739-1.369-.918-.099-1.861-.202-2.803-.326l-.208-.028c-.328-.043-.734-.093-1.159-.169-.754-.135-1.46-.49-1.939-.979-.722-.734-.714-1.583.025-2.334.454-.459 1.119-.842 1.833-1.162.715-.32 1.477-.579 2.119-.8l.043-.015c3.348-1.15 7.117-1.663 11.203-1.522.196.006.39.017.587.031v.56c-.205-.012-.407-.02-.604-.028-4.022-.138-7.722.362-11.005 1.491l-.041.013c-1.164.4-2.92 1.001-3.732 1.826m-232.382 8.86c-.607 1.53-1.92 2.396-3.905 2.578a5.17 5.17 0 0 1-.43.02c-3.858 0-6.831-4.748-8.356-9.315-2.007-6.01-3.851-7.794-8.299-12.098a238.92 238.92 0 0 0-2.026-1.925C62.714 57.73 56.547 51.9 54.881 46.693c-.231-.717-.184-1.226.144-1.51.273-.239.73-.335 1.276-.335 1.28 0 3.048.534 4.037 1.007 2.986 1.421 5.868 3.721 9.077 7.242 2.24 2.458 5.036 4.804 7.743 7.07 2.781 2.335 5.66 4.748 7.915 7.274 3.165 3.547 6.75 11.261 5.162 15.283M85.478 67.08c-2.283-2.553-5.174-4.98-7.97-7.326-2.693-2.256-5.474-4.59-7.69-7.019-3.258-3.575-6.197-5.918-9.246-7.369-.846-.403-4.55-1.77-5.903-.59-.504.437-.608 1.14-.307 2.083 1.708 5.34 7.938 11.221 12.485 15.52.718.677 1.398 1.32 2.02 1.92 4.384 4.238 6.196 5.993 8.164 11.88 1.586 4.751 4.727 9.684 8.871 9.684.157 0 .318-.006.479-.023 2.204-.199 3.67-1.18 4.358-2.92 1.688-4.27-1.926-12.104-5.26-15.84m115.874 75.273c-.065.19-.202.444-.493.57a.955.955 0 0 1-.397.082c-.446 0-.936-.259-1.416-.552-.383-.233-.916-.5-1.533-.809-1.626-.814-3.854-1.927-4.282-3.024-.171-.444-.316-1.024-.017-1.277.15-.129.394-.182.694-.182.848 0 2.131.444 2.906.9l2.655 1.552c.663.385 1.412.824 1.782 1.519.194.36.234.838.101 1.221m.397-1.488c-.447-.832-1.304-1.333-1.995-1.739l-2.655-1.552c-.796-.464-3.281-1.485-4.251-.659-.439.375-.487 1.016-.141 1.908.507 1.299 2.751 2.422 4.555 3.324.603.304 1.127.565 1.488.788.556.337 1.137.633 1.712.633.211 0 .419-.037.625-.13.369-.163.654-.481.798-.902.186-.53.132-1.17-.136-1.671M0 98.17c3.518-.914 7.064-2.08 10.469-3.252 9.093-3.124 18.076-5.75 28.025-3.586A71.976 71.976 0 0 1 59.63 99.6c1.742 1.022 3.453 2.108 5.106 3.157 7.503 4.768 14.592 9.272 24.232 7.853 2.845-.416 5.607-1.137 8.279-1.834 4.056-1.055 8.231-2.143 12.693-2.143.665 0 1.339.023 2.016.076 7.641.584 15.17 2.888 22.454 5.117l.761.233c1.996.61 4.284.152 6.28-1.254 2.128-1.503 3.455-3.753 3.552-6.02 1.758-29.472-26.355-45.248-48.946-57.923l-.448-.253c-6.593-3.699-11.004-9.37-12.419-15.967-1.212-5.648.25-11.239 1.665-16.645C86.114 9.203 87.328 4.571 86.773 0h.542c.552 4.733-.694 9.487-1.912 14.141-1.4 5.341-2.846 10.865-1.663 16.383 1.382 6.437 5.697 11.975 12.147 15.595l.448.253c11.148 6.255 23.782 13.343 33.543 22.661 11.346 10.831 16.478 22.534 15.689 35.78-.104 2.435-1.522 4.849-3.79 6.45-1.512 1.069-3.189 1.623-4.806 1.623a6.734 6.734 0 0 1-1.965-.289l-.761-.231c-7.253-2.22-14.753-4.515-22.33-5.097-5.137-.392-9.697.796-14.526 2.053-2.684.7-5.463 1.422-8.338 1.845-9.849 1.45-17.022-3.111-24.617-7.934-1.65-1.047-3.354-2.132-5.087-3.151a71.55 71.55 0 0 0-20.972-8.2c-9.807-2.136-18.708.47-27.722 3.57C7.19 96.64 3.583 97.826 0 98.751v-.582Zm0-15.51c2.453-.369 5.014-1.058 7.557-2.05 2.114-.825 4.327-1.858 6.963-3.249 1.691-.889 3.36-1.815 4.972-2.709.896-.497 1.787-.99 2.669-1.474 4.891-2.672 10.46-5.396 16.369-5.396 1.328 0 2.675.136 4.034.443 8.256 1.865 14.24 7.85 19.007 13.458 1.243 1.46 2.455 3.032 3.624 4.557 2.848 3.695 5.79 7.517 9.534 10.262 1.477 1.08 3.783 2.366 6.45 2.33 2.175-.028 4.154-.904 6.068-1.75 1.505-.664 3.062-1.353 4.724-1.646 3.58-.629 7.594.321 11.476 1.238 6.17 1.46 12.546 2.97 17.361-1.786.118-.115.23-.233.343-.357 4.516-4.866 2.605-13.596-1.615-19.7-6.288-9.097-15.466-15.777-24.346-22.24l-1.262-.92c-5.94-4.337-10.779-8.05-15.092-12.065-2.683-2.504-5.372-5.324-6.884-9.009a16.603 16.603 0 0 1-.955-3.218c-.857-4.533.112-9.387 1.049-14.082.879-4.412 1.783-8.952 1.211-13.297h.567c.57 4.412-.341 8.975-1.227 13.407-.923 4.64-1.881 9.441-1.048 13.87.203 1.061.514 2.108.924 3.106 1.472 3.583 4.113 6.354 6.746 8.812 4.294 4 9.116 7.698 15.041 12.02l1.263.923c8.915 6.488 18.133 13.2 24.476 22.37 4.349 6.292 6.286 15.32 1.567 20.406-.118.128-.24.252-.361.373-5.037 4.975-11.571 3.428-17.888 1.935-3.825-.905-7.783-1.842-11.247-1.23-1.595.28-3.12.955-4.595 1.605-1.968.869-4 1.77-6.288 1.797h-.113c-2.765 0-5.153-1.322-6.678-2.439-3.808-2.793-6.776-6.646-9.646-10.375-1.17-1.516-2.376-3.086-3.608-4.534C56.198 76.23 50.512 70.6 42.44 68.774c-7.214-1.63-14.108 1.674-20.008 4.9-.882.481-1.77.973-2.667 1.47-1.615.894-3.287 1.823-4.98 2.714-2.66 1.404-4.888 2.444-7.025 3.277-2.641 1.03-5.26 1.738-7.76 2.11v-.585Zm92.808-.032c-.171 1.333-.513 2.388-1.045 3.23-1.73 2.724-5.463 3.203-8.096 2.265-2.542-.902-4.786-2.969-6.67-6.138-.89-1.5-1.64-3.119-2.364-4.684-.572-1.24-1.166-2.522-1.83-3.749-3.035-5.602-7.633-10.186-12.081-14.622-3.149-3.14-6.405-6.387-9.088-9.975-1.73-2.316-4.037-6.742-2.85-8.759.562-.953 1.878-1.302 3.91-1.036a18.263 18.263 0 0 1 7.585 2.822c2.833 1.86 5.103 4.495 7.299 7.043.986 1.144 2.007 2.33 3.07 3.433 2.353 2.451 5.034 4.63 7.627 6.734 2.415 1.963 4.913 3.994 7.134 6.235 3.174 3.203 8.358 9.697 7.4 17.201m-7.014-17.584c-2.24-2.259-4.752-4.3-7.179-6.27-2.58-2.097-5.245-4.262-7.58-6.69-1.049-1.093-2.066-2.272-3.046-3.41-2.22-2.58-4.516-5.244-7.411-7.144a18.804 18.804 0 0 0-7.814-2.907c-2.272-.297-3.767.14-4.449 1.297-.284.485-.405 1.058-.405 1.685 0 2.534 1.987 5.932 3.29 7.673 2.706 3.62 5.976 6.882 9.138 10.035 4.42 4.407 8.99 8.963 11.988 14.498.654 1.21 1.246 2.483 1.816 3.716.73 1.577 1.482 3.21 2.39 4.733 1.947 3.282 4.287 5.428 6.951 6.373a8.32 8.32 0 0 0 2.788.481c2.446 0 4.753-1.08 5.95-2.967.575-.908.944-2.036 1.122-3.448.99-7.732-4.304-14.38-7.55-17.655" style="fill:#221f1f;mix-blend-mode:normal;opacity: .125" transform="translate(-.001)"/></g></svg>